<?xml version="1.0" encoding="UTF-8"?>
<svg version="1.1" xmlns="http://www.w3.org/2000/svg" width="512" height="512">
<path d="M0 0 C135.3 0 270.6 0 410 0 C410 135.3 410 270.6 410 410 C274.7 410 139.4 410 0 410 C0 274.7 0 139.4 0 0 Z " fill="#08090D" transform="translate(51,51)"/>
<path d="M0 0 C8.59692966 6.84935707 13.54805793 15.64417379 17 26 C17.08397157 28.35680213 17.10728187 30.71594081 17.09765625 33.07421875 C17.0962413 33.7580513 17.09482635 34.44188385 17.09336853 35.1464386 C17.08777876 37.32683722 17.07522822 39.50713251 17.0625 41.6875 C17.05748367 43.16731622 17.052921 44.64713406 17.04882812 46.12695312 C17.03781271 49.75133557 17.02055512 53.3756577 17 57 C18.80210937 56.97873047 18.80210937 56.97873047 20.640625 56.95703125 C31.81440154 56.96931553 42.64117307 59.76078205 52 66 C52.6875 68.3125 52.6875 68.3125 52 71 C43.41626365 78.93239592 28.23483978 81.26603446 17 81 C17.01047363 81.56396484 17.02094727 82.12792969 17.03173828 82.70898438 C17.07374478 85.30594281 17.09946602 87.90282939 17.125 90.5 C17.14175781 91.386875 17.15851563 92.27375 17.17578125 93.1875 C17.2686469 105.81722774 13.16388595 116.95037324 4.5 126.3125 C-6.1563598 136.32301981 -18.39866425 139.63617913 -32.81640625 139.34375 C-42.42895766 138.81474006 -50.92624329 134.32256131 -58 128 C-58.90492188 127.24976563 -58.90492188 127.24976563 -59.828125 126.484375 C-67.58245202 119.53919515 -72.51552666 108.87326588 -73.15454102 98.48852539 C-73.19563908 95.82256563 -73.17537017 93.16574419 -73.125 90.5 C-73.11597656 89.5821875 -73.10695312 88.664375 -73.09765625 87.71875 C-73.07432432 85.47888444 -73.04159235 83.23958817 -73 81 C-73.97066406 81.03609375 -74.94132812 81.0721875 -75.94140625 81.109375 C-80.41778499 81.10487273 -84.58620513 80.23409032 -88.9375 79.25 C-89.69740234 79.09273438 -90.45730469 78.93546875 -91.24023438 78.7734375 C-97.35677061 77.41536797 -103.48446933 75.51553067 -108 71 C-108.5 68.625 -108.5 68.625 -108 66 C-99.19863062 57.70156601 -84.4956198 57.12152388 -73 56 C-73.01571045 55.20416504 -73.0314209 54.40833008 -73.04760742 53.58837891 C-73.11050425 49.93399343 -73.14916375 46.27972239 -73.1875 42.625 C-73.21263672 41.37332031 -73.23777344 40.12164062 -73.26367188 38.83203125 C-73.3754085 24.60423456 -69.65917677 13.90527749 -60 3.3125 C-43.34002119 -12.63914637 -18.28887578 -13.26381726 0 0 Z " fill="#0A0A0F" transform="translate(284,147)"/>
<path d="M0 0 C8.59692966 6.84935707 13.54805793 15.64417379 17 26 C17.08397157 28.35680213 17.10728187 30.71594081 17.09765625 33.07421875 C17.0962413 33.7580513 17.09482635 34.44188385 17.09336853 35.1464386 C17.08777876 37.32683722 17.07522822 39.50713251 17.0625 41.6875 C17.05748367 43.16731622 17.052921 44.64713406 17.04882812 46.12695312 C17.03781271 49.75133557 17.02055512 53.3756577 17 57 C18.80210937 56.97873047 18.80210937 56.97873047 20.640625 56.95703125 C31.81440154 56.96931553 42.64117307 59.76078205 52 66 C52.6875 68.3125 52.6875 68.3125 52 71 C43.41626365 78.93239592 28.23483978 81.26603446 17 81 C17.01047363 81.56396484 17.02094727 82.12792969 17.03173828 82.70898438 C17.07374478 85.30594281 17.09946602 87.90282939 17.125 90.5 C17.14175781 91.386875 17.15851563 92.27375 17.17578125 93.1875 C17.2686469 105.81722774 13.16388595 116.95037324 4.5 126.3125 C-6.1563598 136.32301981 -18.39866425 139.63617913 -32.81640625 139.34375 C-42.42895766 138.81474006 -50.92624329 134.32256131 -58 128 C-58.90492188 127.24976563 -58.90492188 127.24976563 -59.828125 126.484375 C-67.58245202 119.53919515 -72.51552666 108.87326588 -73.15454102 98.48852539 C-73.19563908 95.82256563 -73.17537017 93.16574419 -73.125 90.5 C-73.11597656 89.5821875 -73.10695312 88.664375 -73.09765625 87.71875 C-73.07432432 85.47888444 -73.04159235 83.23958817 -73 81 C-73.97066406 81.03609375 -74.94132812 81.0721875 -75.94140625 81.109375 C-80.41778499 81.10487273 -84.58620513 80.23409032 -88.9375 79.25 C-89.69740234 79.09273438 -90.45730469 78.93546875 -91.24023438 78.7734375 C-97.35677061 77.41536797 -103.48446933 75.51553067 -108 71 C-108.5 68.625 -108.5 68.625 -108 66 C-99.19863062 57.70156601 -84.4956198 57.12152388 -73 56 C-73.01571045 55.20416504 -73.0314209 54.40833008 -73.04760742 53.58837891 C-73.11050425 49.93399343 -73.14916375 46.27972239 -73.1875 42.625 C-73.21263672 41.37332031 -73.23777344 40.12164062 -73.26367188 38.83203125 C-73.3754085 24.60423456 -69.65917677 13.90527749 -60 3.3125 C-43.34002119 -12.63914637 -18.28887578 -13.26381726 0 0 Z M-56 7 C-56.9590625 7.87785156 -56.9590625 7.87785156 -57.9375 8.7734375 C-66.0569825 17.06790885 -68.53377121 27.41132272 -68.47732544 38.67437744 C-68.43919884 40.88780908 -68.37662204 43.09968462 -68.3125 45.3125 C-68.28734497 46.84306186 -68.26454471 48.3736643 -68.24414062 49.90429688 C-68.18980905 53.60372733 -68.10395078 57.30159118 -68 61 C-68.69544922 60.97897217 -69.39089844 60.95794434 -70.10742188 60.9362793 C-76.19978353 60.8307546 -81.62202332 61.22775139 -87.5 62.8125 C-88.18835938 62.97814453 -88.87671875 63.14378906 -89.5859375 63.31445312 C-93.14417309 64.23170257 -95.73510982 65.00588382 -98 68 C-97.34217647 71.14257136 -97.34217647 71.14257136 -94.84765625 72.09765625 C-85.74005367 75.25274438 -77.63238872 77.12205772 -68 77 C-68.01571045 77.6798999 -68.0314209 78.3597998 -68.04760742 79.06030273 C-68.11055057 82.18594815 -68.14917726 85.31145958 -68.1875 88.4375 C-68.21263672 89.50677734 -68.23777344 90.57605469 -68.26367188 91.67773438 C-68.37109164 103.38648863 -64.95185651 113.80709972 -57 122.625 C-47.82448749 131.25603155 -37.36253247 134.3625004 -25.0859375 134.2109375 C-14.42878218 133.48247372 -4.96538225 128.47848284 2.3125 120.75 C8.45130109 113.40580679 12.14660143 105.73388092 12.09765625 96.140625 C12.09443359 95.02558594 12.09121094 93.91054687 12.08789062 92.76171875 C12.07951172 91.60285156 12.07113281 90.44398438 12.0625 89.25 C12.05798828 88.07566406 12.05347656 86.90132813 12.04882812 85.69140625 C12.03705094 82.79421928 12.02060326 79.89713546 12 77 C12.73460449 76.93723877 13.46920898 76.87447754 14.22607422 76.80981445 C15.68811279 76.68159302 15.68811279 76.68159302 17.1796875 76.55078125 C18.62190674 76.4257019 18.62190674 76.4257019 20.09326172 76.2980957 C28.05543242 75.48154855 34.8310032 73.56718198 42 70 C40.65908272 66.8967343 40.20155902 66.11392467 37.125 64.375 C29.04403128 61.29413068 20.54669641 60.8607681 12 61 C12.01571045 60.08299316 12.0314209 59.16598633 12.04760742 58.22119141 C12.09916391 54.77321559 12.13655554 51.3256577 12.16479492 47.87744141 C12.17975184 46.39365111 12.20012495 44.90990401 12.22631836 43.42626953 C12.46703605 29.42688394 10.93946506 18.27762746 0.890625 7.80078125 C-8.88821661 -1.32051756 -18.82959736 -4.53293574 -32.2109375 -4.30859375 C-41.84709686 -3.52379314 -48.97908624 0.53756802 -56 7 Z " fill="#C7D6E2" transform="translate(284,147)"/>
<path d="M0 0 C0.33 0 0.66 0 1 0 C1 1.98 1 3.96 1 6 C1.99 6.33 2.98 6.66 4 7 C4.08636719 8.11117187 4.17273438 9.22234375 4.26171875 10.3671875 C5.44692285 23.63430842 8.53431909 33.955378 19 43 C29.69033785 49.96570914 39.9291499 52.75274382 52.6484375 50.5390625 C63.75462829 47.56106182 72.71183815 41.39568693 78.50390625 31.40625 C81.82121717 24.97955078 83.09313186 19.99167987 83.5625 12.75 C83.68818359 10.85507813 83.68818359 10.85507813 83.81640625 8.921875 C83.87699219 7.95765625 83.93757813 6.9934375 84 6 C85.33333333 6 86.66666667 6 88 6 C88.97032891 20.4471194 87.97144574 30.01017832 78.80078125 41.8359375 C70.44974499 51.02897907 59.73944247 56.34148442 47.37109375 57.2734375 C34.47012623 57.606531 23.84257386 54.79734478 14 46 C13.39671875 45.49984375 12.7934375 44.9996875 12.171875 44.484375 C6.07366667 39.02250145 2.56500448 31.69501345 0 24 C-0.08239169 22.15389468 -0.10743359 20.30494836 -0.09765625 18.45703125 C-0.09443359 17.38388672 -0.09121094 16.31074219 -0.08789062 15.20507812 C-0.07951172 14.08552734 -0.07113281 12.96597656 -0.0625 11.8125 C-0.05798828 10.68134766 -0.05347656 9.55019531 -0.04882812 8.38476562 C-0.03703498 5.58979073 -0.0205765 2.7949218 0 0 Z " fill="#E6DDCB" transform="translate(212,229)"/>
<path d="M0 0 C1.32 0 2.64 0 4 0 C5.05135308 2.733518 5.05306492 3.85148908 4.04931641 6.66064453 C2.86666693 10.42432055 2.65122654 13.89981075 2.5859375 17.8046875 C2.56657135 18.5286673 2.5472052 19.25264709 2.5272522 19.99856567 C2.46790114 22.29059398 2.42125122 24.58267374 2.375 26.875 C2.33677913 28.43752081 2.29772506 30.00002148 2.2578125 31.5625 C2.16223692 35.37483465 2.07804394 39.1872678 2 43 C0.91895996 43.12842285 -0.16208008 43.2568457 -1.27587891 43.38916016 C-2.71779218 43.56397308 -4.15968567 43.73894921 -5.6015625 43.9140625 C-6.66612671 44.03986694 -6.66612671 44.03986694 -7.75219727 44.16821289 C-16.62025664 45.17198404 -16.62025664 45.17198404 -25 48 C-26.32161464 50.0047607 -26.32161464 50.0047607 -27 52 C-17.41684549 55.75309853 -8.2032755 57.86630272 2 59 C2 62.96 2 66.92 2 71 C1.01 70.67 0.02 70.34 -1 70 C-1.33 74.29 -1.66 78.58 -2 83 C-2.33 83 -2.66 83 -3 83 C-3 76.4 -3 69.8 -3 63 C-5.31 63 -7.62 63 -10 63 C-13.02220182 62.60437556 -15.96546945 61.92215543 -18.9375 61.25 C-20.07735352 61.01410156 -20.07735352 61.01410156 -21.24023438 60.7734375 C-27.35677061 59.41536797 -33.48446933 57.51553067 -38 53 C-38.5 50.625 -38.5 50.625 -38 48 C-29.19863062 39.70156601 -14.4956198 39.12152388 -3 38 C-3.01571045 37.20416504 -3.0314209 36.40833008 -3.04760742 35.58837891 C-3.11050425 31.93399343 -3.14916375 28.27972239 -3.1875 24.625 C-3.21263672 23.37332031 -3.23777344 22.12164062 -3.26367188 20.83203125 C-3.322436 13.34939905 -2.71836935 7.00176758 0 0 Z " fill="#B1C0CA" transform="translate(214,165)"/>
<path d="M0 0 C3.62011046 2.33296007 5.89022378 4.96794755 7.8125 8.8125 C8.19941286 13.45545428 8.28440735 15.8686853 6.1875 20.0625 C3.09619276 23.64190839 0.4504151 26.34837849 -4.36328125 27.1953125 C-9.75932624 27.467382 -13.03113761 26.47405734 -17.1875 22.8125 C-20.48674936 19.07335073 -20.8692 15.22797634 -20.74609375 10.390625 C-19.75179961 5.80157512 -16.74870855 2.73314856 -13.1875 -0.1875 C-8.48227445 -1.75590852 -4.66101184 -1.73645539 0 0 Z " fill="#0D0D10" transform="translate(325.1875,313.1875)"/>
<path d="M0 0 C0.33 0 0.66 0 1 0 C1 10.23 1 20.46 1 31 C3.64 31 6.28 31 9 31 C18.66198372 31.84732056 27.88558801 34.59039201 36 40 C36.6875 42.3125 36.6875 42.3125 36 45 C27.28408565 53.05454416 12.33468004 55 1 55 C1 61.6 1 68.2 1 75 C0.67 75 0.34 75 0 75 C-0.33 71.04 -0.66 67.08 -1 63 C-1.99 62.67 -2.98 62.34 -4 62 C-4 58.37 -4 54.74 -4 51 C-2.576875 50.74605469 -1.15375 50.49210937 0.3125 50.23046875 C2.2084042 49.88319917 4.10423363 49.5355212 6 49.1875 C6.93457031 49.02185547 7.86914062 48.85621094 8.83203125 48.68554688 C14.51665397 47.63210281 19.65164673 46.20115011 25 44 C24.28876664 40.73442819 24.28876664 40.73442819 21.12109375 39.41796875 C16.26318921 37.51478253 11.21049617 36.95643937 6.0625 36.3125 C5.09248047 36.18294922 4.12246094 36.05339844 3.12304688 35.91992188 C0.74972877 35.60425888 -1.62439441 35.29786857 -4 35 C-4.08736736 31.27098186 -4.14051482 27.54222835 -4.1875 23.8125 C-4.21263672 22.75740234 -4.23777344 21.70230469 -4.26367188 20.61523438 C-4.27333984 19.59365234 -4.28300781 18.57207031 -4.29296875 17.51953125 C-4.31653442 16.11344604 -4.31653442 16.11344604 -4.34057617 14.67895508 C-3.93506655 11.48923674 -2.712956 9.68888834 -1 7 C-0.28076792 3.30476048 -0.28076792 3.30476048 0 0 Z " fill="#B0BCC4" transform="translate(300,173)"/>
<path d="M0 0 C3.62011046 2.33296007 5.89022378 4.96794755 7.8125 8.8125 C8.19941286 13.45545428 8.28440735 15.8686853 6.1875 20.0625 C3.09619276 23.64190839 0.4504151 26.34837849 -4.36328125 27.1953125 C-9.75932624 27.467382 -13.03113761 26.47405734 -17.1875 22.8125 C-20.48674936 19.07335073 -20.8692 15.22797634 -20.74609375 10.390625 C-19.75179961 5.80157512 -16.74870855 2.73314856 -13.1875 -0.1875 C-8.48227445 -1.75590852 -4.66101184 -1.73645539 0 0 Z M-16.1875 5.8125 C-18.47603994 9.08184278 -18.65912218 11.8823152 -18.1875 15.8125 C-16.14756092 19.4703218 -14.68330738 21.48196174 -11.1875 23.8125 C-6.92837013 24.42664419 -3.21508813 24.24977155 0.75 22.5625 C3.47652402 20.24908568 4.58398868 18.15710874 5.18359375 14.62890625 C5.31411538 10.19884851 5.28820102 8.4133855 2.4375 4.8125 C-3.59258568 0.218149 -10.84643 -0.01412181 -16.1875 5.8125 Z " fill="#E1D5BF" transform="translate(325.1875,313.1875)"/>
<path d="M0 0 C6.27 0 12.54 0 19 0 C19 0.99 19 1.98 19 3 C13.72 3 8.44 3 3 3 C3 6.3 3 9.6 3 13 C7.62 13 12.24 13 17 13 C17 13.66 17 14.32 17 15 C12.38 15 7.76 15 3 15 C3 18.63 3 22.26 3 26 C8.28 26 13.56 26 19 26 C19 26.66 19 27.32 19 28 C12.73 28 6.46 28 0 28 C0 18.76 0 9.52 0 0 Z " fill="#C1C4C5" transform="translate(257,312)"/>
<path d="M0 0 C0.66 0.33 1.32 0.66 2 1 C2 1.99 2 2.98 2 4 C1.43667969 3.83757812 0.87335938 3.67515625 0.29296875 3.5078125 C-2.10446869 2.97686383 -4.23522125 2.86689329 -6.6875 2.875 C-7.47511719 2.87242187 -8.26273437 2.86984375 -9.07421875 2.8671875 C-11.00764914 2.78872222 -11.00764914 2.78872222 -12 4 C-12.04063832 5.66617115 -12.042721 7.33388095 -12 9 C-11.18015625 9.24234375 -10.3603125 9.4846875 -9.515625 9.734375 C-8.43796875 10.06953125 -7.3603125 10.4046875 -6.25 10.75 C-5.18265625 11.07484375 -4.1153125 11.3996875 -3.015625 11.734375 C0.18813847 13.07895967 1.87967048 14.2635941 4 17 C4.0625 20.5625 4.0625 20.5625 3 24 C-0.60604496 27.60604496 -4.77183831 27.35382285 -9.59765625 27.3984375 C-12.48047015 26.92031227 -13.89167617 25.99633434 -16 24 C-16 23.34 -16 22.68 -16 22 C-15.45730469 22.16242188 -14.91460937 22.32484375 -14.35546875 22.4921875 C-11.62086939 23.08173628 -9.10856538 23.13246613 -6.3125 23.125 C-5.33925781 23.12757813 -4.36601562 23.13015625 -3.36328125 23.1328125 C-1.04362389 23.26572962 -1.04362389 23.26572962 0 22 C0.04063832 20.33382885 0.042721 18.66611905 0 17 C-0.81984375 16.75765625 -1.6396875 16.5153125 -2.484375 16.265625 C-4.10085938 15.76289063 -4.10085938 15.76289063 -5.75 15.25 C-6.81734375 14.92515625 -7.8846875 14.6003125 -8.984375 14.265625 C-12.18790373 12.92113885 -13.88274935 11.73906455 -16 9 C-16 5.28017071 -15.80240685 2.9949845 -13.4375 0.0625 C-8.88168976 -1.923366 -4.58290843 -1.52763614 0 0 Z " fill="#D4C6AD" transform="translate(378,313)"/>
<path d="M0 0 C0.33 0 0.66 0 1 0 C1 10.23 1 20.46 1 31 C3.64 31 6.28 31 9 31 C9.66 31.99 10.32 32.98 11 34 C10.67 34.66 10.34 35.32 10 36 C3.07 35.505 3.07 35.505 -4 35 C-4.08101311 31.27039634 -4.14051069 27.54255641 -4.1875 23.8125 C-4.21263672 22.75740234 -4.23777344 21.70230469 -4.26367188 20.61523438 C-4.27333984 19.59365234 -4.28300781 18.57207031 -4.29296875 17.51953125 C-4.31653442 16.11344604 -4.31653442 16.11344604 -4.34057617 14.67895508 C-3.93506655 11.48923674 -2.712956 9.68888834 -1 7 C-0.28076792 3.30476048 -0.28076792 3.30476048 0 0 Z " fill="#A8B6C0" transform="translate(300,173)"/>
<path d="M0 0 C5.94 0 11.88 0 18 0 C18 0.99 18 1.98 18 3 C13.05 3 8.1 3 3 3 C3 6.3 3 9.6 3 13 C7.29 13 11.58 13 16 13 C16 13.66 16 14.32 16 15 C11.71 15 7.42 15 3 15 C3 19.29 3 23.58 3 28 C2.01 28 1.02 28 0 28 C0 18.76 0 9.52 0 0 Z " fill="#C6C9C9" transform="translate(211,312)"/>
<path d="M0 0 C0.33 0 0.66 0 1 0 C1 1.98 1 3.96 1 6 C1.99 6.33 2.98 6.66 4 7 C4.08636719 8.09957031 4.17273438 9.19914063 4.26171875 10.33203125 C5.08613445 19.4119114 6.43110959 26.92596848 11 35 C9.68 36.32 8.36 37.64 7 39 C6.01836578 37.06374902 5.03977546 35.12595461 4.0625 33.1875 C3.51722656 32.10855469 2.97195312 31.02960938 2.41015625 29.91796875 C0.43685751 25.83471624 -0.12140407 22.94536999 -0.09765625 18.45703125 C-0.09443359 17.38388672 -0.09121094 16.31074219 -0.08789062 15.20507812 C-0.07951172 14.08552734 -0.07113281 12.96597656 -0.0625 11.8125 C-0.05798828 10.68134766 -0.05347656 9.55019531 -0.04882812 8.38476562 C-0.03703498 5.58979073 -0.0205765 2.7949218 0 0 Z " fill="#E7DCC6" transform="translate(212,229)"/>
<path d="M0 0 C0.99 0.33 1.98 0.66 3 1 C2.67 1.66 2.34 2.32 2 3 C2.66 3.33 3.32 3.66 4 4 C3.26394531 4.6290625 2.52789062 5.258125 1.76953125 5.90625 C-3.84677609 10.83257507 -8.42787474 15.34845642 -12 22 C-12.33 21.34 -12.66 20.68 -13 20 C-13.99 20.33 -14.98 20.66 -16 21 C-15.49463533 12.91416525 -7.72159295 6.08749888 -2 1 C-1.34 0.67 -0.68 0.34 0 0 Z " fill="#CAD9E4" transform="translate(231,145)"/>
<path d="M0 0 C6.69007182 0.52405563 13.3487487 1.10463925 20 2 C20 5.96 20 9.92 20 14 C19.01 13.67 18.02 13.34 17 13 C16.67 17.29 16.34 21.58 16 26 C15.67 26 15.34 26 15 26 C15 19.4 15 12.8 15 6 C12.69 6 10.38 6 8 6 C4.5625 5 4.5625 5 2 4 C2 3.01 2 2.02 2 1 C1.34 0.67 0.68 0.34 0 0 Z " fill="#BFC1BE" transform="translate(196,222)"/>
<path d="M0 0 C1.828125 0.19140625 1.828125 0.19140625 4 1 C7.93028981 6.69892022 9.55495655 12.86401922 9.56640625 19.7109375 C8.79721548 22.81952918 7.10170446 24.63506019 5 27 C4.85304688 25.67548828 4.85304688 25.67548828 4.703125 24.32421875 C3.80844796 17.1436642 2.50541888 10.79386276 -0.29296875 4.109375 C-0.52628906 3.41328125 -0.75960938 2.7171875 -1 2 C-0.67 1.34 -0.34 0.68 0 0 Z " fill="#BBC9D4" transform="translate(291,158)"/>
<path d="M0 0 C0.66 0 1.32 0 2 0 C2 8.58 2 17.16 2 26 C7.28 26 12.56 26 18 26 C18 26.66 18 27.32 18 28 C12.06 28 6.12 28 0 28 C0 18.76 0 9.52 0 0 Z " fill="#DDE1E1" transform="translate(130,312)"/>
<path d="M0 0 C3 0.25 3 0.25 5 2.25 C5.25 5.25 5.25 5.25 5 8.25 C3 10.25 3 10.25 0 10.5 C-3 10.25 -3 10.25 -5 8.25 C-5.25 5.25 -5.25 5.25 -5 2.25 C-3 0.25 -3 0.25 0 0 Z " fill="#E9DFCC" transform="translate(256,212.75)"/>
<path d="M0 0 C0.99 0 1.98 0 3 0 C3 9.24 3 18.48 3 28 C2.01 28 1.02 28 0 28 C0 18.76 0 9.52 0 0 Z " fill="#BDC0C1" transform="translate(177,312)"/>
<path d="M0 0 C5.33739473 1.98844117 8.45333824 4.90667648 11 10 C11.13415472 12.6723621 11.04318541 15.32250488 11 18 C10.01 17.67 9.02 17.34 8 17 C7.86979167 15.046875 7.73958333 13.09375 7.609375 11.140625 C6.74568119 8.10662366 5.48530987 6.92938529 3 5 C-0.2472854 3.88023521 -0.2472854 3.88023521 -3.75 3.25 C-4.92046875 3.00765625 -6.0909375 2.7653125 -7.296875 2.515625 C-8.18890625 2.34546875 -9.0809375 2.1753125 -10 2 C-6.25816125 -0.49455917 -4.43756964 -0.37606522 0 0 Z " fill="#D6CBB6" transform="translate(322,312)"/>
<path d="M0 0 C2.64 0 5.28 0 8 0 C7.01 0.33 6.02 0.66 5 1 C5 8.59 5 16.18 5 24 C4.67 24 4.34 24 4 24 C3.67 20.04 3.34 16.08 3 12 C2.01 11.67 1.02 11.34 0 11 C0 7.37 0 3.74 0 0 Z " fill="#C9C9C3" transform="translate(296,224)"/>
<path d="M0 0 C0.99 0.99 1.98 1.98 3 3 C0.69 6.3 -1.62 9.6 -4 13 C-4.33 12.34 -4.66 11.68 -5 11 C-5.99 11.33 -6.98 11.66 -8 12 C-7.46864683 7.48349806 -5.76591425 4.57941844 -3 1 C-2.01 0.67 -1.02 0.34 0 0 Z " fill="#C7D6E1" transform="translate(223,154)"/>
<path d="M0 0 C0 0.33 0 0.66 0 1 C2.97 1.495 2.97 1.495 6 2 C6 2.33 6 2.66 6 3 C3.43795456 3.33719047 0.87545682 3.66987153 -1.6875 4 C-2.40873047 4.09539062 -3.12996094 4.19078125 -3.87304688 4.2890625 C-7.60992871 4.76683735 -11.22291531 5.11919794 -15 5 C-13.68 4.34 -12.36 3.68 -11 3 C-11 2.34 -11 1.68 -11 1 C-12.32 0.67 -13.64 0.34 -15 0 C-9.65370398 -1.0024305 -5.37625234 -0.84888195 0 0 Z " fill="#9FACB5" transform="translate(210,205)"/>
<path d="M0 0 C3 1 3 1 5 2 C5 2.99 5 3.98 5 5 C4.15695312 4.75443359 4.15695312 4.75443359 3.296875 4.50390625 C0.86940944 3.97135003 -1.26889681 3.90101319 -3.75 3.9375 C-4.94882812 3.95103516 -4.94882812 3.95103516 -6.171875 3.96484375 C-7.07679688 3.98224609 -7.07679688 3.98224609 -8 4 C-8.66 5.65 -9.32 7.3 -10 9 C-11.0625 7.1875 -11.0625 7.1875 -12 5 C-10.0258847 -0.92234589 -5.43124966 -0.54946495 0 0 Z " fill="#D5C6AD" transform="translate(375,312)"/>
<path d="M0 0 C1.32 0.33 2.64 0.66 4 1 C3.21625 1.5775 2.4325 2.155 1.625 2.75 C-1.48137839 5.41261005 -2.85506827 7.24922476 -3.1953125 11.359375 C-3.17210937 12.14828125 -3.14890625 12.9371875 -3.125 13.75 C-3.10695313 14.54921875 -3.08890625 15.3484375 -3.0703125 16.171875 C-3.04710937 16.77515625 -3.02390625 17.3784375 -3 18 C-3.99 17.67 -4.98 17.34 -6 17 C-6.92017937 8.5309417 -6.92017937 8.5309417 -4.6640625 4.77734375 C-3.18027954 3.08109421 -1.67546697 1.50592567 0 0 Z " fill="#E5DAC5" transform="translate(311,314)"/>
<path d="M0 0 C1.32 0 2.64 0 4 0 C4.33 0.66 4.66 1.32 5 2 C5.33 1.34 5.66 0.68 6 0 C6.66 0 7.32 0 8 0 C8.33 0.66 8.66 1.32 9 2 C9.99 2 10.98 2 12 2 C11.01 3.32 10.02 4.64 9 6 C8.443125 5.814375 7.88625 5.62875 7.3125 5.4375 C4.600867 4.92448835 2.65628961 5.3359276 0 6 C0 4.02 0 2.04 0 0 Z " fill="#383F45" transform="translate(289,352)"/>
<path d="M0 0 C0.99 0.33 1.98 0.66 3 1 C2.01 1.33 1.02 1.66 0 2 C0 2.66 0 3.32 0 4 C0.763125 3.505 1.52625 3.01 2.3125 2.5 C5 1 5 1 8 1 C8.33 1.99 8.66 2.98 9 4 C9.66 3.01 10.32 2.02 11 1 C10.67 2.65 10.34 4.3 10 6 C6.7 6 3.4 6 0 6 C-0.38218767 4.34385343 -0.71395102 2.67542976 -1 1 C-0.67 0.67 -0.34 0.34 0 0 Z " fill="#434A51" transform="translate(147,352)"/>
<path d="M0 0 C0.33 0 0.66 0 1 0 C1.46924131 4.69241308 1.83043081 8.63327614 -1.1875 12.5 C-3.99487529 14.9954447 -5.31299634 15.78931408 -9 16 C-8.67 15.01 -8.34 14.02 -8 13 C-7.38125 12.71125 -6.7625 12.4225 -6.125 12.125 C-3.2191023 10.58658357 -2.4058821 8.94565773 -1 6 C-0.28598768 2.80604974 -0.28598768 2.80604974 0 0 Z " fill="#E5D9C1" transform="translate(331,323)"/>
<path d="M0 0 C3.45925163 1.2491742 6.14693203 2.67527795 9 5 C7.02 5.99 5.04 6.98 3 8 C2.01 7.34 1.02 6.68 0 6 C-0.1875 2.875 -0.1875 2.875 0 0 Z " fill="#E3D9C7" transform="translate(229,272)"/>
<path d="M0 0 C1.89213369 2.38573379 3.02391783 4.07175348 4 7 C2.68 8.32 1.36 9.64 0 11 C-3.22265625 5.82421875 -3.22265625 5.82421875 -4 4 C-3.67 3.01 -3.34 2.02 -3 1 C-2.67 2.32 -2.34 3.64 -2 5 C-1.34 5 -0.68 5 0 5 C0 3.35 0 1.7 0 0 Z " fill="#DED2BC" transform="translate(219,257)"/>
<path d="M0 0 C2.93453261 0.36681658 3.86437246 0.86437246 6 3 C5.67 3.66 5.34 4.32 5 5 C-1.93 4.505 -1.93 4.505 -9 4 C-9 3.67 -9 3.34 -9 3 C-7.88625 2.87625 -6.7725 2.7525 -5.625 2.625 C-1.96896323 2.3534187 -1.96896323 2.3534187 0 0 Z " fill="#929FA7" transform="translate(305,204)"/>
<path d="M0 0 C0.33 0 0.66 0 1 0 C1.10911227 1.56091166 1.18609398 3.12408492 1.25 4.6875 C1.29640625 5.55761719 1.3428125 6.42773438 1.390625 7.32421875 C0.88291898 10.80200497 -0.66288478 12.44665561 -3 15 C-2.88623383 12.87436897 -2.75864369 10.7494739 -2.625 8.625 C-2.55539062 7.44164062 -2.48578125 6.25828125 -2.4140625 5.0390625 C-2 2 -2 2 0 0 Z " fill="#B3C2CC" transform="translate(299,170)"/>
<path d="M0 0 C3.3 0 6.6 0 10 0 C8.68 0.33 7.36 0.66 6 1 C6 1.66 6 2.32 6 3 C7.32 3.33 8.64 3.66 10 4 C5.545 4.495 5.545 4.495 1 5 C1.33 4.34 1.66 3.68 2 3 C1.34 2.67 0.68 2.34 0 2 C0 1.34 0 0.68 0 0 Z " fill="#CFDEEB" transform="translate(243,139)"/>
<path d="M0 0 C0.33 1.32 0.66 2.64 1 4 C3.02045442 3.39816251 5.02111039 2.72693904 7 2 C7.33 1.34 7.66 0.68 8 0 C8.66 0 9.32 0 10 0 C10.33 1.65 10.66 3.3 11 5 C10.05125 4.979375 9.1025 4.95875 8.125 4.9375 C5.09333717 4.77448174 5.09333717 4.77448174 3 6 C2.01 5.67 1.02 5.34 0 5 C0 3.35 0 1.7 0 0 Z M1 6 C3 7 3 7 3 7 Z " fill="#4A535C" transform="translate(193,353)"/>
<path d="M0 0 C2.64 0 5.28 0 8 0 C8 0.66 8 1.32 8 2 C6.68 2.33 5.36 2.66 4 3 C4 3.66 4 4.32 4 5 C2.68 5.33 1.36 5.66 0 6 C0 4.02 0 2.04 0 0 Z " fill="#A8B7C1" transform="translate(191,206)"/>
<path d="M0 0 C0.66 0 1.32 0 2 0 C2.268125 0.78375 2.53625 1.5675 2.8125 2.375 C3.84814432 5.28114923 3.84814432 5.28114923 7 7 C7 7.66 7 8.32 7 9 C4.625 8.6875 4.625 8.6875 2 8 C-0.1519437 4.77208445 -0.20086443 3.71599191 0 0 Z " fill="#DCCEB6" transform="translate(362,317)"/>
<path d="M0 0 C1.32 0.66 2.64 1.32 4 2 C3.67 3.32 3.34 4.64 3 6 C1.68 5.67 0.36 5.34 -1 5 C-1 1 -1 1 0 0 Z " fill="#4D555C" transform="translate(371,352)"/>
<path d="M0 0 C1.32 0 2.64 0 4 0 C5 3 5 3 4 6 C2.68 6 1.36 6 0 6 C0 4.02 0 2.04 0 0 Z " fill="#3E454C" transform="translate(304,352)"/>
<path d="M0 0 C2.64 0 5.28 0 8 0 C8 0.99 8 1.98 8 3 C5.03 3 2.06 3 -1 3 C-0.67 2.01 -0.34 1.02 0 0 Z " fill="#F1E9D9" transform="translate(248,281)"/>
<path d="M0 0 C0.99 0.33 1.98 0.66 3 1 C2.67 2.65 2.34 4.3 2 6 C0.68 5.67 -0.64 5.34 -2 5 C-1.125 1.125 -1.125 1.125 0 0 Z " fill="#4A535A" transform="translate(139,352)"/>
<path d="M0 0 C1.98 0 3.96 0 6 0 C6.33 0.99 6.66 1.98 7 3 C5 5 5 5 1.875 5.125 C0.451875 5.063125 0.451875 5.063125 -1 5 C-0.67 3.35 -0.34 1.7 0 0 Z " fill="#ABB1B3" transform="translate(301,223)"/>
<path d="M0 0 C0.66 0 1.32 0 2 0 C2 2 2 2 0 4.125 C-0.66 4.74375 -1.32 5.3625 -2 6 C-1.67 6.99 -1.34 7.98 -1 9 C-3.97 8.505 -3.97 8.505 -7 8 C-6.02133662 6.85373678 -5.04205413 5.70800212 -4.0625 4.5625 C-3.51722656 3.92441406 -2.97195312 3.28632813 -2.41015625 2.62890625 C-1.63204305 1.73008851 -0.84063472 0.84063472 0 0 Z " fill="#D2E0EC" transform="translate(228,147)"/>
<path d="M0 0 C3 1 3 1 4 3 C4.13415472 5.6723621 4.04318541 8.32250488 4 11 C3.01 10.67 2.02 10.34 1 10 C0.67 6.7 0.34 3.4 0 0 Z " fill="#CFC4B0" transform="translate(329,319)"/>
<path d="M0 0 C1.65 0 3.3 0 5 0 C5 1.65 5 3.3 5 5 C3.35 5 1.7 5 0 5 C0 3.35 0 1.7 0 0 Z " fill="#556068" transform="translate(207,353)"/>
<path d="M0 0 C2.97 0.33 5.94 0.66 9 1 C7.515 2.485 7.515 2.485 6 4 C4.68 4 3.36 4 2 4 C2 3.01 2 2.02 2 1 C1.34 0.67 0.68 0.34 0 0 Z " fill="#C0CACD" transform="translate(196,222)"/>
<path d="M0 0 C0.99 0.33 1.98 0.66 3 1 C2.67 2.65 2.34 4.3 2 6 C0.68 5.67 -0.64 5.34 -2 5 C-1.125 1.125 -1.125 1.125 0 0 Z " fill="#525D65" transform="translate(353,352)"/>
<path d="M0 0 C1.98 0 3.96 0 6 0 C4.25 3.875 4.25 3.875 2 5 C2 4.34 2 3.68 2 3 C1.01 3 0.02 3 -1 3 C-0.67 2.01 -0.34 1.02 0 0 Z " fill="#F0E6D5" transform="translate(284,269)"/>
<path d="M0 0 C0.99 0 1.98 0 3 0 C2.67 1.65 2.34 3.3 2 5 C1.01 4.67 0.02 4.34 -1 4 C-0.67 2.68 -0.34 1.36 0 0 Z M-3 1 C-2.34 2.32 -1.68 3.64 -1 5 C-1.99 5 -2.98 5 -4 5 C-3.67 3.68 -3.34 2.36 -3 1 Z " fill="#E1D5C0" transform="translate(296,254)"/>
<path d="M0 0 C2.97 0.495 2.97 0.495 6 1 C6 2.65 6 4.3 6 6 C3.00306862 5.00102287 1.97290587 4.34869747 0 2 C0 1.34 0 0.68 0 0 Z " fill="#A6B0B5" transform="translate(192,220)"/>
<path d="M0 0 C0.66 0 1.32 0 2 0 C2.33 2.97 2.66 5.94 3 9 C2.01 8.67 1.02 8.34 0 8 C0 5.36 0 2.72 0 0 Z " fill="#F0E4CF" transform="translate(305,323)"/>
<path d="M0 0 C1.32 0 2.64 0 4 0 C3.814375 0.61875 3.62875 1.2375 3.4375 1.875 C2.76313824 4.04160178 2.76313824 4.04160178 4 6 C2.68 6 1.36 6 0 6 C0 4.02 0 2.04 0 0 Z " fill="#545D65" transform="translate(289,352)"/>
<path d="M0 0 C3.625 -0.1875 3.625 -0.1875 7 0 C7 0.99 7 1.98 7 3 C4.03 3 1.06 3 -2 3 C-1.34 2.01 -0.68 1.02 0 0 Z " fill="#C0B6A1" transform="translate(316,337)"/>
<path d="M0 0 C0 0.99 0 1.98 0 3 C-3.63 2.34 -7.26 1.68 -11 1 C-11 0.67 -11 0.34 -11 0 C-3.57142857 -1.28571429 -3.57142857 -1.28571429 0 0 Z " fill="#C4B7A1" transform="translate(380,314)"/>
<path d="M0 0 C1.98 0 3.96 0 6 0 C5.01 0.495 5.01 0.495 4 1 C3.34786708 3.02463255 3.34786708 3.02463255 3 5 C1.68 5 0.36 5 -1 5 C-1 4.34 -1 3.68 -1 3 C-0.34 2.67 0.32 2.34 1 2 C0.67 1.34 0.34 0.68 0 0 Z " fill="#DED9CD" transform="translate(244,280)"/>
<path d="M0 0 C0.33 0 0.66 0 1 0 C1 1.98 1 3.96 1 6 C1.99 6.33 2.98 6.66 4 7 C4 8.98 4 10.96 4 13 C3.525625 12.360625 3.05125 11.72125 2.5625 11.0625 C1.16261274 9.11706694 1.16261274 9.11706694 0 8 C-0.14115161 5.32941149 -0.04247107 2.67567762 0 0 Z " fill="#D8D3C7" transform="translate(212,229)"/>
<path d="M0 0 C0.66 0 1.32 0 2 0 C2.33 1.32 2.66 2.64 3 4 C4.32 4.33 5.64 4.66 7 5 C1.25 5.125 1.25 5.125 -1 4 C-0.67 2.68 -0.34 1.36 0 0 Z " fill="#BDC8CD" transform="translate(190,220)"/>
<path d="M0 0 C1.32 0 2.64 0 4 0 C4 0.99 4 1.98 4 3 C3.01 3.33 2.02 3.66 1 4 C0.34 4.99 -0.32 5.98 -1 7 C-0.67 4.69 -0.34 2.38 0 0 Z " fill="#EFE2CB" transform="translate(295,251)"/>
</svg>
