<?xml version="1.0" encoding="UTF-8"?>
<svg version="1.1" xmlns="http://www.w3.org/2000/svg" width="512" height="512">
<path d="M0 0 C168.96 0 337.92 0 512 0 C512 168.96 512 337.92 512 512 C343.04 512 174.08 512 0 512 C0 343.04 0 174.08 0 0 Z " fill="#08090D" transform="translate(0,0)"/>
<path d="M0 0 C0.94875 0.44730469 1.8975 0.89460938 2.875 1.35546875 C17.32967872 8.68100566 26.84428765 20.78434473 32.05297852 36.09521484 C33.25852394 40.40690945 33.25309577 44.54545681 33.1953125 48.99609375 C33.1924826 49.82963882 33.18965271 50.6631839 33.18673706 51.52198792 C33.17562289 54.1606436 33.15053515 56.79894848 33.125 59.4375 C33.11495885 61.23632319 33.10583499 63.03515175 33.09765625 64.83398438 C33.07571235 69.22278955 33.04124387 73.61133548 33 78 C33.6075412 77.99442581 34.2150824 77.98885162 34.84103394 77.98310852 C36.044832 77.9766053 36.044832 77.9766053 37.27294922 77.9699707 C38.06611542 77.96439651 38.85928162 77.95882233 39.67648315 77.95307922 C52.30707844 78.20813971 68.60858106 82.45195049 78 91 C77.77044888 94.09894009 76.82670572 95.18734516 74.6875 97.5 C63.71794819 105.99423727 46.31366032 107.03399447 33 108 C33.02094727 108.75506836 33.04189453 109.51013672 33.06347656 110.28808594 C33.14764582 113.77525007 33.19897679 117.26219944 33.25 120.75 C33.28351563 121.93722656 33.31703125 123.12445313 33.3515625 124.34765625 C33.51384442 139.19645204 28.1802425 153.23074493 17.9609375 164.1640625 C4.33270772 176.9235605 -10.43446724 180.52368919 -28.45703125 180.2734375 C-39.91143067 179.88345121 -48.79351879 175.73464462 -58 169 C-58.98613281 168.29037109 -58.98613281 168.29037109 -59.9921875 167.56640625 C-70.40581405 159.39749476 -77.14245822 145.96912827 -79 133 C-79.22254196 128.64116332 -79.1904571 124.30046724 -79.125 119.9375 C-79.11597656 118.78572266 -79.10695312 117.63394531 -79.09765625 116.44726562 C-79.07428714 113.63128807 -79.04152565 110.81575842 -79 108 C-79.87970459 107.97478271 -80.75940918 107.94956543 -81.66577148 107.92358398 C-94.86320897 107.4576957 -110.98793412 104.77617408 -122 97 C-124 94 -124 94 -123.9375 92.0625 C-121.74717825 87.24379215 -116.64500839 84.98292996 -111.9765625 83.015625 C-108.09334321 81.69064204 -104.1810162 80.68386327 -100.1875 79.75 C-99.4653833 79.5746875 -98.7432666 79.399375 -97.99926758 79.21875 C-91.65491247 77.82589833 -85.47452159 77.82696156 -79 78 C-79.02094727 76.91170898 -79.04189453 75.82341797 -79.06347656 74.70214844 C-79.13665517 70.60951236 -79.18207844 66.51693231 -79.21972656 62.42382812 C-79.23966673 60.66266103 -79.26682911 58.9015586 -79.30175781 57.140625 C-79.64335807 39.45778829 -76.5629508 25.95222402 -64.09033203 12.62158203 C-58.9308046 7.34711908 -53.65781402 3.17573644 -47 0 C-46.18015625 -0.41121094 -45.3603125 -0.82242188 -44.515625 -1.24609375 C-31.42902217 -6.71145245 -12.68689842 -6.24675029 0 0 Z " fill="#0A0A0F" transform="translate(279,113)"/>
<path d="M0 0 C0.94875 0.44730469 1.8975 0.89460938 2.875 1.35546875 C17.32967872 8.68100566 26.84428765 20.78434473 32.05297852 36.09521484 C33.25852394 40.40690945 33.25309577 44.54545681 33.1953125 48.99609375 C33.1924826 49.82963882 33.18965271 50.6631839 33.18673706 51.52198792 C33.17562289 54.1606436 33.15053515 56.79894848 33.125 59.4375 C33.11495885 61.23632319 33.10583499 63.03515175 33.09765625 64.83398438 C33.07571235 69.22278955 33.04124387 73.61133548 33 78 C33.6075412 77.99442581 34.2150824 77.98885162 34.84103394 77.98310852 C36.044832 77.9766053 36.044832 77.9766053 37.27294922 77.9699707 C38.06611542 77.96439651 38.85928162 77.95882233 39.67648315 77.95307922 C52.30707844 78.20813971 68.60858106 82.45195049 78 91 C77.77044888 94.09894009 76.82670572 95.18734516 74.6875 97.5 C63.71794819 105.99423727 46.31366032 107.03399447 33 108 C33.02094727 108.75506836 33.04189453 109.51013672 33.06347656 110.28808594 C33.14764582 113.77525007 33.19897679 117.26219944 33.25 120.75 C33.28351563 121.93722656 33.31703125 123.12445313 33.3515625 124.34765625 C33.51384442 139.19645204 28.1802425 153.23074493 17.9609375 164.1640625 C4.33270772 176.9235605 -10.43446724 180.52368919 -28.45703125 180.2734375 C-39.91143067 179.88345121 -48.79351879 175.73464462 -58 169 C-58.98613281 168.29037109 -58.98613281 168.29037109 -59.9921875 167.56640625 C-70.40581405 159.39749476 -77.14245822 145.96912827 -79 133 C-79.22254196 128.64116332 -79.1904571 124.30046724 -79.125 119.9375 C-79.11597656 118.78572266 -79.10695312 117.63394531 -79.09765625 116.44726562 C-79.07428714 113.63128807 -79.04152565 110.81575842 -79 108 C-79.87970459 107.97478271 -80.75940918 107.94956543 -81.66577148 107.92358398 C-94.86320897 107.4576957 -110.98793412 104.77617408 -122 97 C-124 94 -124 94 -123.9375 92.0625 C-121.74717825 87.24379215 -116.64500839 84.98292996 -111.9765625 83.015625 C-108.09334321 81.69064204 -104.1810162 80.68386327 -100.1875 79.75 C-99.4653833 79.5746875 -98.7432666 79.399375 -97.99926758 79.21875 C-91.65491247 77.82589833 -85.47452159 77.82696156 -79 78 C-79.02094727 76.91170898 -79.04189453 75.82341797 -79.06347656 74.70214844 C-79.13665517 70.60951236 -79.18207844 66.51693231 -79.21972656 62.42382812 C-79.23966673 60.66266103 -79.26682911 58.9015586 -79.30175781 57.140625 C-79.64335807 39.45778829 -76.5629508 25.95222402 -64.09033203 12.62158203 C-58.9308046 7.34711908 -53.65781402 3.17573644 -47 0 C-46.18015625 -0.41121094 -45.3603125 -0.82242188 -44.515625 -1.24609375 C-31.42902217 -6.71145245 -12.68689842 -6.24675029 0 0 Z M-64 22 C-70.51703816 32.04485634 -73.17425051 41.02281465 -73.09765625 52.8984375 C-73.09553383 54.15087753 -73.09553383 54.15087753 -73.09336853 55.42861938 C-73.08780174 58.07745042 -73.07525547 60.7261948 -73.0625 63.375 C-73.0574807 65.17838419 -73.05291855 66.98176971 -73.04882812 68.78515625 C-73.0378432 73.19013721 -73.02060163 77.59505394 -73 82 C-74.20221191 82.12189697 -75.40442383 82.24379395 -76.64306641 82.36938477 C-78.25426042 82.53895325 -79.86542421 82.70880914 -81.4765625 82.87890625 C-82.26490479 82.95806274 -83.05324707 83.03721924 -83.86547852 83.11877441 C-97.88887664 84.5661709 -97.88887664 84.5661709 -110 91 C-109.87822312 92.91466367 -109.87822312 92.91466367 -109 95 C-105.15303912 97.77355794 -101.10549739 98.99264771 -96.5625 100.125 C-95.91990234 100.29386719 -95.27730469 100.46273437 -94.61523438 100.63671875 C-87.25497687 102.53469378 -80.56780652 103.13460525 -73 103 C-73.02356567 104.17804199 -73.02356567 104.17804199 -73.04760742 105.37988281 C-73.11069303 109.00317936 -73.14922211 112.62635973 -73.1875 116.25 C-73.21263672 117.48492187 -73.23777344 118.71984375 -73.26367188 119.9921875 C-73.37769946 134.43568105 -69.95712414 145.31961911 -61.8125 157.1875 C-50.50995318 168.49004682 -38.53462861 174.10021441 -22.6875 174.375 C-8.67168179 174.34750602 2.92722165 168.94007511 13.1875 159.5 C24.84608506 147.34569558 27.33232994 133.28337423 27.125 117 C27.11494978 115.63932951 27.10582754 114.27865183 27.09765625 112.91796875 C27.0742082 109.61179353 27.04138856 106.3059912 27 103 C28.39738403 102.91455933 28.39738403 102.91455933 29.82299805 102.82739258 C31.06090088 102.74642334 32.29880371 102.6654541 33.57421875 102.58203125 C34.79455811 102.5044458 36.01489746 102.42686035 37.2722168 102.34692383 C45.57947979 101.57381356 56.05028506 100.00986732 63 95 C63.78433329 92.94494494 63.78433329 92.94494494 64 91 C56.82264192 86.13791872 48.63071054 84.53780335 40.1875 83.3125 C38.93936523 83.11817383 38.93936523 83.11817383 37.66601562 82.91992188 C34.02751477 82.36845703 30.69858467 82 27 82 C27.02094727 80.84588623 27.04189453 79.69177246 27.06347656 78.50268555 C27.13651027 74.17338736 27.18202749 69.84414231 27.21972656 65.5144043 C27.23969895 63.64940193 27.26688668 61.78446102 27.30175781 59.91967773 C27.66090013 45.00986469 27.66090013 45.00986469 23 31 C22.55495117 30.12214844 22.10990234 29.24429688 21.65136719 28.33984375 C15.03568525 15.88798639 4.39024335 7.65287306 -8.91992188 3.38427734 C-29.95915224 -2.40099584 -50.25753162 5.46165013 -64 22 Z " fill="#BCCAD4" transform="translate(279,113)"/>
<path d="M0 0 C0.96679688 0.00902344 1.93359375 0.01804688 2.9296875 0.02734375 C3.65414062 0.03894531 4.37859375 0.05054688 5.125 0.0625 C4.125 2.5 4.125 2.5 2.125 5.0625 C0.1796875 5.53149414 0.1796875 5.53149414 -2 5.72265625 C-3.27875 5.83480469 -4.5575 5.94695312 -5.875 6.0625 C-5.8435791 7.19510254 -5.8435791 7.19510254 -5.81152344 8.35058594 C-5.72735418 11.83775007 -5.67602321 15.32469944 -5.625 18.8125 C-5.59148437 19.99972656 -5.55796875 21.18695313 -5.5234375 22.41015625 C-5.36115558 37.25895204 -10.6947575 51.29324493 -20.9140625 62.2265625 C-34.54229228 74.9860605 -49.30946724 78.58618919 -67.33203125 78.3359375 C-78.78643067 77.94595121 -87.66851879 73.79714462 -96.875 67.0625 C-97.86113281 66.35287109 -97.86113281 66.35287109 -98.8671875 65.62890625 C-109.26966641 57.46873946 -116.03994401 44.02666579 -117.875 31.0625 C-118.09917923 26.53729701 -118.06516902 22.02924687 -118 17.5 C-117.99097656 16.30052734 -117.98195312 15.10105469 -117.97265625 13.86523438 C-117.94927412 10.93077691 -117.9165028 7.99674766 -117.875 5.0625 C-118.865 4.7325 -119.855 4.4025 -120.875 4.0625 C-120.545 3.4025 -120.215 2.7425 -119.875 2.0625 C-117.22639573 1.46894386 -114.58302678 1.32040731 -111.875 1.0625 C-111.86041748 1.84786133 -111.84583496 2.63322266 -111.83081055 3.44238281 C-111.75546959 7.06620292 -111.65909739 10.6891866 -111.5625 14.3125 C-111.53994141 15.54742187 -111.51738281 16.78234375 -111.49414062 18.0546875 C-111.20049517 28.19880326 -110.12465818 38.07038286 -104.9375 47 C-104.45410156 47.85464844 -103.97070312 48.70929688 -103.47265625 49.58984375 C-97.02427253 59.56986061 -86.42330664 67.10613715 -74.9375 70.3125 C-60.03319856 73.14895875 -46.0639186 71.07643701 -33.25 62.80078125 C-22.99037256 55.29167893 -16.14863325 45.0201617 -13.25268555 32.54125977 C-12.37250931 26.76464093 -12.38708811 20.89445661 -12.25 15.0625 C-12.21174348 13.70180002 -12.17268752 12.34112226 -12.1328125 10.98046875 C-12.03902932 7.6746118 -11.95332611 4.36875326 -11.875 1.0625 C-7.84538361 0.35499141 -4.09423983 -0.04992975 0 0 Z " fill="#E3DBCC" transform="translate(317.875,214.9375)"/>
<path d="M0 0 C9.3728273 1.9128219 14.17041775 7.58753439 19.36328125 15.34765625 C25.14467176 24.71654445 28.33823743 32.98759753 28.1953125 43.99609375 C28.1924826 44.82963882 28.18965271 45.6631839 28.18673706 46.52198792 C28.17562289 49.1606436 28.15053515 51.79894848 28.125 54.4375 C28.11495885 56.23632319 28.10583499 58.03515175 28.09765625 59.83398438 C28.07571235 64.22278955 28.04124387 68.61133548 28 73 C28.6075412 72.99442581 29.2150824 72.98885162 29.84103394 72.98310852 C31.044832 72.9766053 31.044832 72.9766053 32.27294922 72.9699707 C33.06611542 72.96439651 33.85928162 72.95882233 34.67648315 72.95307922 C47.30707844 73.20813971 63.60858106 77.45195049 73 86 C72.77044888 89.09894009 71.82670572 90.18734516 69.6875 92.5 C61.17109039 99.09465447 46.53369954 102 36 102 C36.185625 101.38125 36.37125 100.7625 36.5625 100.125 C37.23686176 97.95839822 37.23686176 97.95839822 36 96 C36.83402344 95.82984375 37.66804688 95.6596875 38.52734375 95.484375 C45.4380295 93.99616318 51.69223889 92.21092749 58 89 C57.85629447 87.04437681 57.85629447 87.04437681 57 85 C47.16285514 79.21816792 33.05374665 78.74769456 22 77 C21.9906543 75.84588623 21.98130859 74.69177246 21.97167969 73.50268555 C21.93145519 69.17288254 21.86561031 64.84376611 21.79248047 60.5144043 C21.76445746 58.64958596 21.7431512 56.78465296 21.72900391 54.91967773 C21.60340937 39.29153076 19.88407306 25.37844047 8.61328125 13.48046875 C7.01923855 11.93146965 5.40235035 10.40543736 3.7578125 8.91015625 C2 7 2 7 2 4 C1.01 3.67 0.02 3.34 -1 3 C-0.67 2.01 -0.34 1.02 0 0 Z " fill="#B7C5D0" transform="translate(284,118)"/>
<path d="M0 0 C4.59047821 2.63527453 7.99478431 6.17706863 10.375 10.9375 C10.93174965 16.89043853 10.91641118 21.91098091 7.375 26.9375 C2.89087114 31.34896937 -0.33442815 34.08018124 -6.75 34.3125 C-12.5608761 34.23634173 -16.41898176 33.00496705 -20.625 28.9375 C-24.35432084 24.17284363 -25.28203661 19.23066356 -25.0078125 13.26171875 C-23.98799631 7.06997763 -19.38252078 3.48033462 -14.625 -0.0625 C-9.47314305 -1.77978565 -5.11937784 -1.5005073 0 0 Z " fill="#0D0D10" transform="translate(341.625,327.0625)"/>
<path d="M0 0 C1.11761719 0.35396851 1.11761719 0.35396851 2.2578125 0.71508789 C7.21383607 2.42040443 10.53426439 4.61937181 14.375 8.1875 C14.14544888 11.28644009 13.20170572 12.37484516 11.0625 14.6875 C2.54609039 21.28215447 -12.09130046 24.1875 -22.625 24.1875 C-22.439375 23.56875 -22.25375 22.95 -22.0625 22.3125 C-21.38813824 20.14589822 -21.38813824 20.14589822 -22.625 18.1875 C-21.79097656 18.01734375 -20.95695312 17.8471875 -20.09765625 17.671875 C-13.1869705 16.18366318 -6.93276111 14.39842749 -0.625 11.1875 C-0.74883463 9.23242906 -0.74883463 9.23242906 -1.625 7.1875 C-10.60141081 2.11907032 -22.59764581 1.57203008 -32.625 0.1875 C-22.92670854 -7.72426408 -11.1911046 -3.64197268 0 0 Z " fill="#AFBDC6" transform="translate(342.625,195.8125)"/>
<path d="M0 0 C0.01458252 0.78536133 0.02916504 1.57072266 0.04418945 2.37988281 C0.11953041 6.00370292 0.21590261 9.6266866 0.3125 13.25 C0.33505859 14.48492187 0.35761719 15.71984375 0.38085938 16.9921875 C0.67188531 27.04581071 1.8082168 36.78266871 6.6875 45.75 C7.12449219 46.56984375 7.56148437 47.3896875 8.01171875 48.234375 C8.50091797 49.10835938 8.50091797 49.10835938 9 50 C8.34 50.99 7.68 51.98 7 53 C6.34 53 5.68 53 5 53 C4.67 53.66 4.34 54.32 4 55 C2.69523021 52.52700609 1.40634614 50.04760211 0.125 47.5625 C-0.23980469 46.87478516 -0.60460937 46.18707031 -0.98046875 45.47851562 C-5.89291076 35.87692443 -6.27873755 27.12225957 -6.125 16.4375 C-6.11597656 15.23802734 -6.10695312 14.03855469 -6.09765625 12.80273438 C-6.07427412 9.86827691 -6.0415028 6.93424766 -6 4 C-6.99 3.67 -7.98 3.34 -9 3 C-7.14340032 -0.71319936 -3.69365381 -0.09982848 0 0 Z " fill="#DDD6C5" transform="translate(206,216)"/>
<path d="M0 0 C4.59047821 2.63527453 7.99478431 6.17706863 10.375 10.9375 C10.93174965 16.89043853 10.91641118 21.91098091 7.375 26.9375 C2.89087114 31.34896937 -0.33442815 34.08018124 -6.75 34.3125 C-12.5608761 34.23634173 -16.41898176 33.00496705 -20.625 28.9375 C-24.35432084 24.17284363 -25.28203661 19.23066356 -25.0078125 13.26171875 C-23.98799631 7.06997763 -19.38252078 3.48033462 -14.625 -0.0625 C-9.47314305 -1.77978565 -5.11937784 -1.5005073 0 0 Z M-19 7.5 C-21.77765923 11.66648885 -22.11485136 14.99277404 -21.625 19.9375 C-20.04075162 24.69024513 -17.6360172 27.3478159 -13.51171875 30.01953125 C-9.69468689 31.87667926 -6.5060574 31.53858977 -2.546875 30.2734375 C1.87767919 28.38890516 4.65966734 26.23806361 6.74609375 21.859375 C8.1200024 17.66084671 8.36144646 14.0405199 6.45703125 9.98046875 C3.79592779 5.88977574 1.06637442 3.5651197 -3.625 1.9375 C-9.75663832 1.15473766 -14.79126756 2.95899921 -19 7.5 Z " fill="#E3D7C0" transform="translate(341.625,327.0625)"/>
<path d="M0 0 C7.59 0 15.18 0 23 0 C23 0.99 23 1.98 23 3 C16.4 3 9.8 3 3 3 C3 7.29 3 11.58 3 16 C8.94 16 14.88 16 21 16 C21 16.99 21 17.98 21 19 C15.06 19 9.12 19 3 19 C3 23.29 3 27.58 3 32 C9.6 32 16.2 32 23 32 C23 32.99 23 33.98 23 35 C15.41 35 7.82 35 0 35 C0 23.45 0 11.9 0 0 Z " fill="#CFD2D3" transform="translate(258,326)"/>
<path d="M0 0 C0.598125 0.556875 1.19625 1.11375 1.8125 1.6875 C1.8125 2.6775 1.8125 3.6675 1.8125 4.6875 C-0.57314077 4.11165568 -2.85432784 3.46522405 -5.1875 2.6875 C-7.14336747 2.49290963 -7.14336747 2.49290963 -9.1875 2.5 C-10.2084375 2.47873047 -10.2084375 2.47873047 -11.25 2.45703125 C-13.51364132 2.57809589 -13.51364132 2.57809589 -16.1875 4.6875 C-16.4377157 7.77115871 -16.4377157 7.77115871 -16.1875 10.6875 C-12.54532527 12.70028077 -9.05972971 14.04882277 -5.0625 15.125 C1.61084557 17.08479275 1.61084557 17.08479275 3.8125 20.6875 C4.375 24.125 4.375 24.125 3.8125 27.6875 C1.05059194 31.03086239 -1.13200298 33.47956415 -5.54296875 33.92578125 C-12.06836342 34.09679159 -15.8441223 33.48723525 -21.1875 29.6875 C-20.6925 28.2025 -20.6925 28.2025 -20.1875 26.6875 C-15.4375 28.5625 -15.4375 28.5625 -13.1875 29.6875 C-8.92913285 29.96673719 -6.15624062 30.07095983 -2.1875 28.5 C0.09467854 26.83152846 0.09467854 26.83152846 0.125 24 C0.021875 23.236875 -0.08125 22.47375 -0.1875 21.6875 C-3.82967473 19.67471923 -7.31527029 18.32617723 -11.3125 17.25 C-18.06526461 15.25671406 -18.06526461 15.25671406 -20.1875 11.6875 C-20.70579966 8.42221214 -20.95978425 6.75839406 -20.1875 3.6875 C-15.11481575 -2.89327957 -7.41949935 -3.05508797 0 0 Z " fill="#E2D3B8" transform="translate(409.1875,327.3125)"/>
<path d="M0 0 C7.59 0 15.18 0 23 0 C23 0.99 23 1.98 23 3 C16.4 3 9.8 3 3 3 C3 7.29 3 11.58 3 16 C8.61 16 14.22 16 20 16 C20 16.99 20 17.98 20 19 C14.39 19 8.78 19 3 19 C3 24.28 3 29.56 3 35 C2.01 35 1.02 35 0 35 C0 23.45 0 11.9 0 0 Z " fill="#D0D3D3" transform="translate(200,326)"/>
<path d="M0 0 C1.32 0 2.64 0 4 0 C4 10.56 4 21.12 4 32 C10.6 32 17.2 32 24 32 C24 32.99 24 33.98 24 35 C16.08 35 8.16 35 0 35 C0 23.45 0 11.9 0 0 Z " fill="#BEC1C2" transform="translate(98,326)"/>
<path d="M0 0 C1.875 1.0625 1.875 1.0625 3 3 C3.63316583 8.90954774 3.63316583 8.90954774 1.875 11.9375 C-0.93512264 13.52990283 -2.82764724 13.45319325 -6 13 C-8.7912125 11.01677007 -9.82597224 9.87013879 -10.5 6.5 C-9.33037707 0.65188536 -5.56964553 -0.82952167 0 0 Z " fill="#E8DECB" transform="translate(259,202)"/>
<path d="M0 0 C0.99 0 1.98 0 3 0 C3 11.55 3 23.1 3 35 C2.01 35 1.02 35 0 35 C0 23.45 0 11.9 0 0 Z " fill="#D6D9D9" transform="translate(158,326)"/>
<path d="M0 0 C0.33 0.99 0.66 1.98 1 3 C4.465 2.505 4.465 2.505 8 2 C5.08092388 4.91907612 1.53369359 5.24846572 -2.375 6.125 C-3.14328125 6.30675781 -3.9115625 6.48851562 -4.703125 6.67578125 C-8.30932098 7.50558067 -11.25371241 8 -15 8 C-14.814375 7.38125 -14.62875 6.7625 -14.4375 6.125 C-13.76313824 3.95839822 -13.76313824 3.95839822 -15 2 C-13.2508503 1.66223316 -11.50063855 1.32996329 -9.75 1 C-8.77546875 0.814375 -7.8009375 0.62875 -6.796875 0.4375 C-4 0 -4 0 0 0 Z " fill="#BBC3C7" transform="translate(335,212)"/>
<path d="M0 0 C0.99 0 1.98 0 3 0 C1 4 1 4 -0.125 5.75 C-1.9728792 10.50168936 -1.50959086 14.71388974 0.3125 19.3125 C1.73199705 21.57318049 2.98589068 23.27362058 5 25 C3.35 25.33 1.7 25.66 0 26 C-4.45233243 19.53693679 -5.92111318 14.80522219 -5 7 C-3.78665931 4.24240753 -2.14106704 2.14106704 0 0 Z " fill="#E4D8C4" transform="translate(322,331)"/>
<path d="M0 0 C0.75410156 0.09990234 1.50820313 0.19980469 2.28515625 0.30273438 C4.14917753 0.55048404 6.01219288 0.80578057 7.875 1.0625 C0.44195763 5.09369232 -6.92794301 5.38460597 -15.125 4.0625 C-9.46051092 -0.55853057 -7.15526493 -0.99481663 0 0 Z " fill="#A3B1BA" transform="translate(325.125,191.9375)"/>
<path d="M0 0 C0.33 0 0.66 0 1 0 C1 4.29 1 8.58 1 13 C7.6 13 14.2 13 21 13 C21 13.66 21 14.32 21 15 C13.74 15 6.48 15 -1 15 C-1.125 2.25 -1.125 2.25 0 0 Z " fill="#E2E5E6" transform="translate(260,345)"/>
<path d="M0 0 C-0.33 1.32 -0.66 2.64 -1 4 C-1.61875 3.649375 -2.2375 3.29875 -2.875 2.9375 C-8.21215293 1.33635412 -13.76291169 2.2543039 -19 4 C-19.66 3.34 -20.32 2.68 -21 2 C-14.4085444 -3.22770616 -7.60342997 -3.04137199 0 0 Z " fill="#DFD4C0" transform="translate(344,328)"/>
<path d="M0 0 C7.59 0 15.18 0 23 0 C23 0.99 23 1.98 23 3 C19.72918529 3.02902429 16.4584037 3.04680684 13.1875 3.0625 C12.25873047 3.07087891 11.32996094 3.07925781 10.37304688 3.08789062 C9.48037109 3.09111328 8.58769531 3.09433594 7.66796875 3.09765625 C6.43469849 3.10551147 6.43469849 3.10551147 5.17651367 3.11352539 C3 3 3 3 0 2 C0 1.34 0 0.68 0 0 Z " fill="#C6C9CA" transform="translate(258,326)"/>
<path d="M0 0 C3.43595166 1.52708963 6.11912454 3.59927045 9 6 C8.34 7.32 7.68 8.64 7 10 C2.00724943 8.72278474 -0.57611908 6.82669043 -4 3 C-2.68 2.01 -1.36 1.02 0 0 Z " fill="#EBE1CF" transform="translate(222,275)"/>
<path d="M0 0 C5.61 0 11.22 0 17 0 C17 0.99 17 1.98 17 3 C11.06 3 5.12 3 -1 3 C-0.67 2.01 -0.34 1.02 0 0 Z " fill="#D6DAD9" transform="translate(203,342)"/>
<path d="M0 0 C9.86692101 -0.46656194 9.86692101 -0.46656194 14.1875 1.3125 C14.785625 1.869375 15.38375 2.42625 16 3 C16 3.99 16 4.98 16 6 C15.45859375 5.85691406 14.9171875 5.71382813 14.359375 5.56640625 C11.67007168 4.92079535 8.97254755 4.4236692 6.25 3.9375 C5.26515625 3.76089844 4.2803125 3.58429688 3.265625 3.40234375 C2.14414062 3.20318359 2.14414062 3.20318359 1 3 C0.67 2.01 0.34 1.02 0 0 Z " fill="#D4C6AD" transform="translate(395,326)"/>
<path d="M0 0 C5.73232596 4.14678899 5.73232596 4.14678899 7 8.1875 C7 9.115625 7 10.04375 7 11 C6.34 11.66 5.68 12.32 5 13 C4.73445313 12.45730469 4.46890625 11.91460937 4.1953125 11.35546875 C3.84210938 10.64003906 3.48890625 9.92460937 3.125 9.1875 C2.77695312 8.47980469 2.42890625 7.77210938 2.0703125 7.04296875 C0.9343514 4.78753582 0.9343514 4.78753582 -1 2 C-0.67 1.34 -0.34 0.68 0 0 Z " fill="#E6D9C2" transform="translate(344,329)"/>
<path d="M0 0 C1.67542976 0.28604898 3.34385343 0.61781233 5 1 C4.67 2.65 4.34 4.3 4 6 C2.35 5.67 0.7 5.34 -1 5 C-1 1 -1 1 0 0 Z " fill="#4F595F" transform="translate(109,377)"/>
<path d="M0 0 C1.65 0.33 3.3 0.66 5 1 C4.67 2.65 4.34 4.3 4 6 C2.35 5.67 0.7 5.34 -1 5 C-0.67 3.35 -0.34 1.7 0 0 Z " fill="#535D63" transform="translate(399,377)"/>
<path d="M0 0 C-0.268125 0.515625 -0.53625 1.03125 -0.8125 1.5625 C-2.32349407 4.66401415 -3.65572726 7.82262806 -5 11 C-5.66 10.34 -6.32 9.68 -7 9 C-6.79828958 5.83987005 -6.51579075 3.70335103 -4.625 1.125 C-3 0 -3 0 0 0 Z " fill="#EDE2CC" transform="translate(325,331)"/>
<path d="M0 0 C1.2065625 0.0309375 1.2065625 0.0309375 2.4375 0.0625 C2.4375 2.0625 2.4375 4.0625 2.4375 6.0625 C0.7875 6.0625 -0.8625 6.0625 -2.5625 6.0625 C-2.94468767 4.40635343 -3.27645102 2.73792976 -3.5625 1.0625 C-2.5625 0.0625 -2.5625 0.0625 0 0 Z " fill="#485057" transform="translate(121.5625,376.9375)"/>
<path d="M0 0 C1.65 0 3.3 0 5 0 C5.33 1.32 5.66 2.64 6 4 C5.195625 4.12375 4.39125 4.2475 3.5625 4.375 C2.2940625 4.684375 2.2940625 4.684375 1 5 C0.67 5.66 0.34 6.32 0 7 C0 4.69 0 2.38 0 0 Z " fill="#454C54" transform="translate(99,376)"/>
<path d="M0 0 C2.64 0.66 5.28 1.32 8 2 C8 2.66 8 3.32 8 4 C4.36804504 5.21065165 2.93468371 4.62784815 -0.6875 3.5625 C-2.17830078 3.13130859 -2.17830078 3.13130859 -3.69921875 2.69140625 C-4.45847656 2.46324219 -5.21773438 2.23507812 -6 2 C-2.25 0.875 -2.25 0.875 0 2 C0 1.34 0 0.68 0 0 Z " fill="#DCCCB0" transform="translate(401,342)"/>
<path d="M0 0 C0.66 0.66 1.32 1.32 2 2 C1.01 3.485 1.01 3.485 0 5 C-0.45394552 7.27912938 -0.45394552 7.27912938 -0.625 9.6875 C-0.69976562 10.49574219 -0.77453125 11.30398438 -0.8515625 12.13671875 C-0.90054687 12.75160156 -0.94953125 13.36648438 -1 14 C-1.66 13.67 -2.32 13.34 -3 13 C-3.27429625 7.60550707 -3.36055646 4.48074195 0 0 Z " fill="#252424" transform="translate(323,334)"/>
<path d="M0 0 C4.75 1.875 4.75 1.875 7 3 C6.67 3.99 6.34 4.98 6 6 C4.02 5.34 2.04 4.68 0 4 C0 2.68 0 1.36 0 0 Z " fill="#E2D5BC" transform="translate(389,354)"/>
<path d="M0 0 C4.455 1.98 4.455 1.98 9 4 C9 4.66 9 5.32 9 6 C3.5388601 5.64766839 3.5388601 5.64766839 1 5 C-0.5 2.9375 -0.5 2.9375 -1 1 C-0.67 0.67 -0.34 0.34 0 0 Z " fill="#EBDCC1" transform="translate(392,338)"/>
<path d="M0 0 C1.65 0 3.3 0 5 0 C4.67 1.65 4.34 3.3 4 5 C2.68 5.33 1.36 5.66 0 6 C0 4.02 0 2.04 0 0 Z " fill="#6A757D" transform="translate(324,377)"/>
<path d="M0 0 C0.99 0.33 1.98 0.66 3 1 C3.33 2.65 3.66 4.3 4 6 C2.02 6 0.04 6 -2 6 C-1.34 4.02 -0.68 2.04 0 0 Z " fill="#6A7881" transform="translate(187,377)"/>
<path d="M0 0 C0.33 0.66 0.66 1.32 1 2 C1.66 2 2.32 2 3 2 C3 1.34 3 0.68 3 0 C3.66 0 4.32 0 5 0 C5 1.98 5 3.96 5 6 C4.34 6 3.68 6 3 6 C3 5.01 3 4.02 3 3 C2.34 3 1.68 3 1 3 C0.67 3.99 0.34 4.98 0 6 C0 4.02 0 2.04 0 0 Z " fill="#6D7981" transform="translate(351,377)"/>
<path d="M0 0 C2.475 0.495 2.475 0.495 5 1 C4.67 1.99 4.34 2.98 4 4 C3.01 4 2.02 4 1 4 C0.67 4.66 0.34 5.32 0 6 C0 4.02 0 2.04 0 0 Z " fill="#69767D" transform="translate(168,377)"/>
<path d="M0 0 C1.98 0 3.96 0 6 0 C5.01 1.98 4.02 3.96 3 6 C0 2.25 0 2.25 0 0 Z " fill="#606B73" transform="translate(306,377)"/>
<path d="M0 0 C2.2477975 2.05233685 3.0022242 3.00667261 4 6 C2.02 6 0.04 6 -2 6 C-1.34 4.02 -0.68 2.04 0 0 Z " fill="#727F89" transform="translate(251,377)"/>
<path d="M0 0 C1.32 0.33 2.64 0.66 4 1 C4 1.66 4 2.32 4 3 C3.34 3 2.68 3 2 3 C2 3.66 2 4.32 2 5 C2.99 5.33 3.98 5.66 5 6 C3.35 6 1.7 6 0 6 C0 4.02 0 2.04 0 0 Z " fill="#6F7B85" transform="translate(297,377)"/>
<path d="M0 0 C0.66 0.33 1.32 0.66 2 1 C2 1.99 2 2.98 2 4 C0.1875 4.6875 0.1875 4.6875 -2 5 C-3.75 3.5625 -3.75 3.5625 -5 2 C-2.625 0.9375 -2.625 0.9375 0 0 Z " fill="#D2C8B4" transform="translate(342,355)"/>
<path d="M0 0 C1.32 0.33 2.64 0.66 4 1 C3.67 2.32 3.34 3.64 3 5 C0.525 4.01 0.525 4.01 -2 3 C-1.34 2.01 -0.68 1.02 0 0 Z " fill="#D6CAB6" transform="translate(340,327)"/>
<path d="M0 0 C1.32 0.33 2.64 0.66 4 1 C3.67 2.98 3.34 4.96 3 7 C1.25372522 4.38058783 0.61277612 2.96175123 0 0 Z " fill="#F0E3CA" transform="translate(347,335)"/>
</svg>
