<svg xmlns="http://www.w3.org/2000/svg" viewBox="0 0 512 512" role="img" aria-label="LifeOS">
  <defs>
    <linearGradient id="bg" x1="0%" y1="0%" x2="100%" y2="100%">
      <stop offset="0%" stop-color="#2dd4bf"/>
      <stop offset="100%" stop-color="#0d9488"/>
    </linearGradient>
  </defs>
  <rect width="512" height="512" rx="112" fill="url(#bg)"/>
  <path
    fill="#ffffff"
    d="M256 108c-52 88-128 132-128 188 0 61 49 110 110 110h36c61 0 110-49 110-110 0-56-76-100-128-188zm-92 188c0-38 32-78 92-138 60 60 92 100 92 138 0 30-24 54-54 54h-76c-30 0-54-24-54-54z"
  />
</svg>
