<?xml version="1.0" encoding="UTF-8"?>
<svg version="1.1" xmlns="http://www.w3.org/2000/svg" width="512" height="512">
<path d="M0 0 C2.5 0.25 2.5 0.25 4.5 2.25 C4.72041308 10.36064346 2.67667261 18.75279004 1.1875 26.6875 C0.98705078 27.84443359 0.78660156 29.00136719 0.58007812 30.19335938 C0.26780273 31.85915039 0.26780273 31.85915039 -0.05078125 33.55859375 C-0.32402222 35.05604126 -0.32402222 35.05604126 -0.6027832 36.58374023 C-2.06163651 40.91901559 -5.15000801 43.19889053 -8.890625 45.6171875 C-9.51839844 46.02839844 -10.14617187 46.43960938 -10.79296875 46.86328125 C-11.43878906 47.27964844 -12.08460938 47.69601563 -12.75 48.125 C-14.68666631 49.38046671 -16.61528009 50.64238924 -18.52539062 51.93798828 C-19.8287797 52.80401362 -21.16184652 53.62712462 -22.52148438 54.40185547 C-29.71759113 58.91416831 -32.2809567 66.13629231 -35.5 73.625 C-36.08782074 74.94751561 -36.67764966 76.26914055 -37.26953125 77.58984375 C-38.70298734 80.79995681 -40.10888902 84.02127217 -41.5 87.25 C-33.25900702 92.38234421 -24.9595838 97.35871914 -16.5 102.125 C-15.00533203 102.97578125 -15.00533203 102.97578125 -13.48046875 103.84375 C-12.51753906 104.38773437 -11.55460937 104.93171875 -10.5625 105.4921875 C-9.70785156 105.9754248 -8.85320312 106.45866211 -7.97265625 106.95654297 C-3.387892 109.59019733 -3.387892 109.59019733 1.6328125 109.7890625 C2.29023438 109.48742187 2.94765625 109.18578125 3.625 108.875 C6.2891071 107.68288982 7.4949099 107.25 10.5 107.25 C10.36368164 105.8902002 10.36368164 105.8902002 10.22460938 104.50292969 C9.88447094 101.0814859 9.54966986 97.65960101 9.21826172 94.23730469 C9.07482993 92.7670486 8.92938279 91.29698746 8.78173828 89.82714844 C6.66027599 68.67025242 6.66027599 68.67025242 7.5 63.25 C12.99067145 59.58955236 19.92751264 60.86723889 26.2734375 61.69140625 C31.30582092 62.77922341 33.60359776 64.64316189 36.44897461 68.87353516 C38.88963889 73.18715549 40.91300137 77.49828472 42.48828125 82.19921875 C43.32990226 84.37699472 43.32990226 84.37699472 45.34765625 85.33984375 C47.70621448 85.46362931 47.70621448 85.46362931 49.68359375 83.37890625 C51.18377278 81.67073013 52.68377337 79.96239729 54.18359375 78.25390625 C56.5 76.25 56.5 76.25 59.09765625 75.71484375 C62.28851242 76.42565236 62.76663868 77.52413095 64.5 80.25 C65.20466863 82.06450031 65.8384621 83.90736202 66.41796875 85.765625 C72.13064533 102.91901829 79.25671602 112.94402034 93.0390625 124.3515625 C94.5 126.25 94.5 126.25 94.65234375 128.546875 C92.92385507 132.6014993 90.10576521 135.36234475 87.0625 138.5 C86.46373047 139.13679687 85.86496094 139.77359375 85.24804688 140.4296875 C80.13128812 145.81574935 77.16542136 146.4322913 69.6875 146.75 C68.07666848 146.81942131 66.4659795 146.89224744 64.85546875 146.96875 C64.14028076 146.99904297 63.42509277 147.02933594 62.68823242 147.06054688 C59.04312075 147.37074047 59.04312075 147.37074047 55.5 148.25 C53.87364649 150.27777905 53.87364649 150.27777905 52.73828125 152.9296875 C52.26447021 153.91146973 51.79065918 154.89325195 51.30249023 155.90478516 C50.81079346 156.96745605 50.31909668 158.03012695 49.8125 159.125 C48.74917658 161.33939764 47.6840511 163.55293079 46.6171875 165.765625 C46.09092773 166.86841797 45.56466797 167.97121094 45.02246094 169.10742188 C42.93260525 173.42118429 40.70142879 177.65073441 38.4375 181.875 C34.2794228 189.67968823 30.31061197 197.57008606 26.42944336 205.51611328 C17.80488535 223.00048907 17.80488535 223.00048907 11.125 227.875 C10.25101562 228.52726563 9.37703125 229.17953125 8.4765625 229.8515625 C7.49816406 230.54378906 7.49816406 230.54378906 6.5 231.25 C7.0053125 232.41917969 7.510625 233.58835937 8.03125 234.79296875 C8.68796817 236.3409473 9.34419231 237.8891355 10 239.4375 C10.33386719 240.20642578 10.66773438 240.97535156 11.01171875 241.76757812 C14.24384178 249.45211553 14.24384178 249.45211553 13.5 253.25 C9.65237766 255.81508156 7.69241148 255.37207897 3.125 255.0625 C1.81789063 254.98644531 0.51078125 254.91039062 -0.8359375 254.83203125 C-4.60651142 254.23308081 -6.55161751 253.63555641 -9.5 251.25 C-11.30078125 248.55078125 -11.30078125 248.55078125 -12.8125 245.5625 C-13.32425781 244.56863281 -13.83601563 243.57476562 -14.36328125 242.55078125 C-14.73839844 241.79152344 -15.11351562 241.03226563 -15.5 240.25 C-22.58868952 240.95221638 -29.55181707 242.06100702 -36.5625 243.3125 C-41.9765625 244.2715625 -41.9765625 244.2715625 -47.5 245.25 C-47.17 252.84 -46.84 260.43 -46.5 268.25 C-43.86 268.58 -41.22 268.91 -38.5 269.25 C-37.14081648 267.98790101 -35.78444399 266.72143809 -34.4765625 265.40625 C-29.92515221 262.74376493 -23.57562841 263.63181449 -18.5 264.25 C-16.5 266.25 -16.5 266.25 -16.47265625 269.84765625 C-16.49183105 270.56211914 -16.51100586 271.27658203 -16.53076172 272.01269531 C-16.6472268 279.42727583 -16.6472268 279.42727583 -13.51953125 285.91796875 C-11.16086069 287.77494277 -8.75427206 289.44886187 -6.22558594 291.06445312 C-2.91671821 293.33777821 0.00742509 296.08261391 3 298.75 C6.56288571 301.88902439 10.11624795 305.00229961 13.90234375 307.87109375 C15.40474609 309.01771484 15.40474609 309.01771484 16.9375 310.1875 C17.82308594 310.83589844 18.70867187 311.48429687 19.62109375 312.15234375 C21.5 314.25 21.5 314.25 21.78515625 317.50390625 C21.69105469 318.41011719 21.59695313 319.31632812 21.5 320.25 C19.375 321.5 19.375 321.5 16.5 322.25 C11.66598588 319.47095907 7.60091085 315.87095831 3.4375 312.1875 C2.11256101 311.02667931 0.78702917 309.86653497 -0.5390625 308.70703125 C-1.53147949 307.83812256 -1.53147949 307.83812256 -2.54394531 306.95166016 C-4.93987958 304.86732892 -7.35846146 302.81150065 -9.78808594 300.76660156 C-10.8794618 299.84581376 -11.96615285 298.91944166 -13.04785156 297.98730469 C-15.32751851 296.02859651 -17.59337381 294.18695152 -20.0859375 292.50390625 C-22.4343307 290.85179103 -23.96578606 289.6848292 -25.5 287.25 C-26.14385805 282.50743582 -25.97458185 278.00240994 -25.5 273.25 C-28.26596038 274.8436328 -30.48078376 276.23078376 -32.75 278.5 C-36.24189734 280.72211649 -38.03577997 280.45909155 -42.015625 279.8046875 C-53.51214575 277.23785425 -53.51214575 277.23785425 -56.5 274.25 C-56.73638693 271.63279167 -56.8522504 269.12465391 -56.87109375 266.50390625 C-56.88012222 265.73698959 -56.8891507 264.97007294 -56.89845276 264.17991638 C-56.91296898 262.55675164 -56.92184541 260.93352819 -56.92553711 259.31030273 C-56.93744009 256.82500843 -56.98661092 254.34219216 -57.03710938 251.85742188 C-57.04657276 250.28126214 -57.0538082 248.70508713 -57.05859375 247.12890625 C-57.07812607 246.38508194 -57.09765839 245.64125763 -57.11778259 244.87489319 C-57.09936523 242.77172852 -57.09936523 242.77172852 -56.5 239.25 C-52.91256625 235.95261591 -48.27059547 235.30626038 -43.6015625 234.390625 C-42.84837738 234.23712585 -42.09519226 234.08362671 -41.31918335 233.92547607 C-39.73165279 233.60486783 -38.14312951 233.28914072 -36.55371094 232.97802734 C-34.13653223 232.50226981 -31.72471386 232.00415533 -29.3125 231.50390625 C-27.76329307 231.19394869 -26.21382133 230.88531122 -24.6640625 230.578125 C-23.95029449 230.42925842 -23.23652649 230.28039185 -22.50112915 230.12701416 C-17.90763567 229.25044644 -14.05492971 229.13979587 -9.5 230.25 C-7.28515625 233.12109375 -7.28515625 233.12109375 -5.5625 236.6875 C-4.97597656 237.86183594 -4.38945312 239.03617188 -3.78515625 240.24609375 C-2.5 243.25 -2.5 243.25 -2.5 245.25 C-1.18 245.25 0.14 245.25 1.5 245.25 C1.066875 244.36957031 0.63375 243.48914063 0.1875 242.58203125 C-0.369375 241.42058594 -0.92625 240.25914062 -1.5 239.0625 C-2.3353125 237.33966797 -2.3353125 237.33966797 -3.1875 235.58203125 C-4.44635076 232.38619882 -5.14250219 230.60341057 -4.5 227.25 C-2.7421875 225.1875 -2.7421875 225.1875 -0.375 223.25 C0.39070313 222.610625 1.15640625 221.97125 1.9453125 221.3125 C3.72511129 219.87559823 5.54210174 218.4840755 7.38525391 217.12939453 C11.07122616 214.04030748 12.8577435 210.4094289 14.890625 206.1171875 C15.27692581 205.33185638 15.66322662 204.54652527 16.06123352 203.73739624 C17.30350212 201.20590734 18.52645425 198.66558235 19.75 196.125 C20.60368653 194.38035162 21.45907871 192.63653682 22.31616211 190.89355469 C23.98250446 187.5043676 25.64410006 184.11293023 27.30224609 180.71972656 C45.82445171 142.92554829 45.82445171 142.92554829 50.5 138.25 C52.28200127 138.1066876 54.06873832 138.02144631 55.85546875 137.9609375 C56.95310547 137.90550781 58.05074219 137.85007812 59.18164062 137.79296875 C61.49838213 137.68197166 63.81629677 137.59302275 66.13476562 137.52734375 C72.29366424 137.30183669 72.29366424 137.30183669 77.63916016 134.60253906 C79.11368203 132.88233577 80.36268961 131.20639289 81.5 129.25 C80.20239851 126.33478702 78.91544462 124.48929953 76.48828125 122.4296875 C66.87146308 113.84596186 61.95464524 105.67893045 58.5 93.25 C58.5 92.26 58.5 91.27 58.5 90.25 C57.90832031 90.76691406 57.31664062 91.28382813 56.70703125 91.81640625 C55.91683594 92.47511719 55.12664062 93.13382812 54.3125 93.8125 C53.53519531 94.47378906 52.75789063 95.13507813 51.95703125 95.81640625 C49.5 97.25 49.5 97.25 46.9609375 97.12109375 C38.45682334 94.11090731 34.52937016 88.01677226 30.5 80.375 C30.13366455 79.60091797 29.7673291 78.82683594 29.38989258 78.02929688 C28.24038198 75.80167384 27.25874715 74.04119223 25.5 72.25 C22.46720332 71.29745636 19.66438169 71.13193892 16.5 71.25 C16.83 72.24 17.16 73.23 17.5 74.25 C17.71576471 76.0140582 17.88853819 77.78354129 18.03515625 79.5546875 C18.12265137 80.60769043 18.21014648 81.66069336 18.30029297 82.74560547 C20.28948589 108.38285725 20.28948589 108.38285725 19.5 112.25 C16.5206747 115.33130709 12.65949427 116.50448365 8.6875 117.9375 C7.50542969 118.37449219 6.32335937 118.81148438 5.10546875 119.26171875 C-1.22317165 120.99643817 -4.92007983 120.80180555 -10.66015625 117.64453125 C-12.63685478 116.46589852 -14.60386468 115.27091213 -16.5625 114.0625 C-17.60220947 113.43770752 -18.64191895 112.81291504 -19.71313477 112.16918945 C-21.88542046 110.86358652 -24.05424415 109.5522077 -26.21972656 108.23535156 C-31.42787319 105.08317469 -36.68614551 102.01693084 -41.9375 98.9375 C-43.77074652 97.86013816 -45.60289086 96.78089719 -47.43359375 95.69921875 C-48.19728271 95.24893311 -48.96097168 94.79864746 -49.74780273 94.3347168 C-51.5 93.25 -51.5 93.25 -52.5 92.25 C-52.07084112 86.96247814 -50.6129786 82.45036946 -48.5078125 77.62890625 C-48.20237518 76.92531479 -47.89693787 76.22172333 -47.58224487 75.49681091 C-46.93337797 74.01634668 -46.27924061 72.53818233 -45.62011719 71.06225586 C-44.63427962 68.83347931 -43.6924356 66.58920018 -42.75 64.34179688 C-38.01675137 53.47190768 -32.53396833 47.40951886 -21.5390625 42.34375 C-16.47090579 39.97783703 -12.63692111 38.0059216 -10.42675781 32.6484375 C-8.68254519 26.55463194 -7.73714723 20.36345734 -6.90039062 14.08984375 C-4.98412975 0.49841298 -4.98412975 0.49841298 0 0 Z " fill="#000000" transform="translate(361.5,122.75)"/>
<path d="M0 0 C0.76075836 -0.00761353 1.52151672 -0.01522705 2.30532837 -0.02307129 C3.91413087 -0.03387097 5.52300348 -0.03672589 7.13183594 -0.03222656 C9.58648584 -0.03125596 12.03799053 -0.07283454 14.4921875 -0.1171875 C16.05728517 -0.12239615 17.62239367 -0.12508267 19.1875 -0.125 C19.91786469 -0.14139526 20.64822937 -0.15779053 21.40072632 -0.17468262 C25.2585198 -0.12270611 27.02310373 0.30565406 30.06567383 2.74462891 C31.85998203 5.00662087 33.4299188 7.13762847 34.83984375 9.6484375 C35.27868896 10.40906494 35.71753418 11.16969238 36.16967773 11.95336914 C36.62157471 12.74219482 37.07347168 13.53102051 37.5390625 14.34375 C41.41908897 20.8726968 44.91656185 26.089 51.2265625 30.46875 C52.80540384 31.65837003 54.38409121 32.84820452 55.95922852 34.04272461 C57.52612855 35.22436336 59.10651413 36.3880562 60.6875 37.55078125 C63.2265625 39.46875 63.2265625 39.46875 65.2265625 41.46875 C65.25990394 43.27127165 65.28447339 45.07473533 65.24804688 46.87719727 C65.19728241 51.9669113 65.21470958 56.02324583 68.1953125 60.28125 C70.76602895 62.56633129 73.37966481 64.5402064 76.2265625 66.46875 C77.9230833 67.70647914 79.6112976 68.9557135 81.2890625 70.21875 C82.02253906 70.72921875 82.75601563 71.2396875 83.51171875 71.765625 C85.80889029 74.04709833 85.95743717 75.23298727 86.2265625 78.46875 C85.52669034 81.27968515 84.75185026 83.89653252 83.8046875 86.62109375 C83.54403503 87.39884659 83.28338257 88.17659943 83.01483154 88.97792053 C82.46212978 90.61959132 81.90366615 92.25933203 81.33984375 93.8972168 C80.48206771 96.3902497 79.64188192 98.8886616 78.8046875 101.38867188 C78.26404615 102.98732628 77.72241157 104.5856452 77.1796875 106.18359375 C76.92954895 106.92439682 76.6794104 107.66519989 76.42169189 108.42845154 C73.4782599 116.94903764 73.4782599 116.94903764 71.2265625 120.46875 C68.89428711 121.53662109 68.89428711 121.53662109 66.2265625 121.46875 C63.49438477 120.25634766 63.49438477 120.25634766 60.54296875 118.3828125 C58.91270752 117.3628418 58.91270752 117.3628418 57.24951172 116.32226562 C56.09579218 115.57979439 54.94231298 114.83694959 53.7890625 114.09375 C52.61554248 113.35225374 51.44122375 112.61202004 50.26611328 111.87304688 C46.90823361 109.75576487 43.56682192 107.61371796 40.2265625 105.46875 C38.61884899 104.44474801 37.010831 103.42122368 35.40234375 102.3984375 C32.33187212 100.43990159 29.27380399 98.46330807 26.2265625 96.46875 C26.60368325 90.56052486 28.10610998 87.77683706 32.0390625 83.40625 C35.46218109 79.55840178 38.46641364 75.79877373 41.2265625 71.46875 C40.62968628 70.83428955 40.62968628 70.83428955 40.02075195 70.18701172 C38.19177843 68.24088825 36.36540871 66.29233916 34.5390625 64.34375 C33.91322266 63.67859375 33.28738281 63.0134375 32.64257812 62.328125 C22.36731853 51.35350219 22.36731853 51.35350219 21.7890625 47.71875 C22.2265625 45.46875 22.2265625 45.46875 24.2265625 43.46875 C27.25466939 43.03837173 28.66939989 43.05388076 31.15185547 44.90234375 C31.75143066 45.56363281 32.35100586 46.22492188 32.96875 46.90625 C33.64292969 47.63714844 34.31710937 48.36804688 35.01171875 49.12109375 C35.70136719 49.89582031 36.39101563 50.67054687 37.1015625 51.46875 C38.12443359 52.58443359 38.12443359 52.58443359 39.16796875 53.72265625 C40.53301671 55.21770877 41.88696831 56.72297019 43.22949219 58.23828125 C44.55601721 59.7198378 45.91114576 61.17629283 47.29394531 62.60546875 C50.05815535 65.52687845 51.9859777 67.56480516 53.03125 71.4921875 C51.84294999 75.88774385 49.30551896 78.70041787 46.3515625 82.09375 C45.24687602 83.39579347 44.1452051 84.70040269 43.046875 86.0078125 C42.55461426 86.57709473 42.06235352 87.14637695 41.55517578 87.73291016 C40.1593384 89.55657862 39.18752681 91.38789486 38.2265625 93.46875 C38.93772217 93.73155762 39.64888184 93.99436523 40.3815918 94.26513672 C43.36555191 95.52755184 45.98646486 97.03070117 48.74609375 98.7265625 C49.76767578 99.35175781 50.78925781 99.97695312 51.84179688 100.62109375 C52.89689453 101.27207031 53.95199219 101.92304688 55.0390625 102.59375 C56.11349609 103.25246094 57.18792969 103.91117187 58.29492188 104.58984375 C60.94092796 106.21272748 63.58470099 107.83913123 66.2265625 109.46875 C66.32888184 108.87594238 66.43120117 108.28313477 66.53662109 107.67236328 C67.76729206 101.01065964 69.64151892 94.7402989 71.8515625 88.34375 C72.17640625 87.38726562 72.50125 86.43078125 72.8359375 85.4453125 C73.62727909 83.11783723 74.42420449 80.7924455 75.2265625 78.46875 C72.81182413 76.36236205 70.39443495 74.25903926 67.9765625 72.15625 C67.29464844 71.56134766 66.61273438 70.96644531 65.91015625 70.35351562 C65.24628906 69.77666016 64.58242188 69.19980469 63.8984375 68.60546875 C63.2909668 68.07655029 62.68349609 67.54763184 62.05761719 67.00268555 C60.22268153 65.40480442 60.22268153 65.40480442 58.02148438 64.0234375 C56.2265625 62.46875 56.2265625 62.46875 55.77246094 60.56762695 C55.7934082 59.87113037 55.81435547 59.17463379 55.8359375 58.45703125 C55.84882813 57.69970703 55.86171875 56.94238281 55.875 56.16210938 C55.90851563 55.37642578 55.94203125 54.59074219 55.9765625 53.78125 C55.99460937 52.98396484 56.01265625 52.18667969 56.03125 51.36523438 C56.07834003 49.39922551 56.15008351 47.43383506 56.2265625 45.46875 C55.71996094 45.23800781 55.21335937 45.00726563 54.69140625 44.76953125 C44.54431024 39.41456616 36.89606782 33.52206031 31.77783203 23.11328125 C28.40078765 16.13121404 28.40078765 16.13121404 23.2265625 10.46875 C14.84068669 7.91848129 5.76171585 9.16425058 -2.7734375 10.46875 C-7.37881408 20.76779915 -7.37881408 20.76779915 -6.33203125 31.62890625 C-5.56769908 34.14639192 -5.92885335 36.01177793 -6.7734375 38.46875 C-7.7734375 39.46875 -7.7734375 39.46875 -10.1484375 39.78125 C-12.7734375 39.46875 -12.7734375 39.46875 -14.31787109 37.73266602 C-17.32585704 33.05419341 -19.23219459 28.24966434 -18.30761719 22.64501953 C-17.3948939 19.69804031 -16.32596165 16.88240273 -15.1484375 14.03125 C-14.77847656 13.05220703 -14.40851563 12.07316406 -14.02734375 11.06445312 C-10.80974236 2.79305732 -9.28295967 0.00254589 0 0 Z " fill="#000000" transform="translate(346.7734375,73.53125)"/>
<path d="M0 0 C0.72342087 0.18535309 1.44684174 0.37070618 2.19218445 0.56167603 C2.99024506 0.7633136 3.78830566 0.96495117 4.61054993 1.17269897 C8.29101461 2.19824982 11.94155608 3.29010481 15.58158875 4.45083618 C17.16548745 4.94590202 18.74947444 5.44068547 20.33354187 5.93521118 C22.78998019 6.70649587 25.24550623 7.48042768 27.69950867 8.25942993 C30.09541123 9.01826349 32.49443411 9.76646698 34.89408875 10.51333618 C35.6223436 10.74767365 36.35059845 10.98201111 37.10092163 11.22344971 C43.66631928 13.25385095 48.21641989 13.4976479 54.55815125 10.84536743 C55.58102234 10.43480103 56.60389343 10.02423462 57.65776062 9.60122681 C59.77803405 8.72847817 61.89527331 7.84831969 64.00932312 6.96060181 C72.04740099 3.75647158 77.07599328 2.77106882 85.14189148 6.14883423 C86.95926491 6.97739614 88.77644332 7.80642226 90.58973694 8.64387512 C109.85842429 17.49966218 128.93312537 21.00939729 149.85112 23.22427368 C150.52413273 23.29606087 151.19714546 23.36784805 151.89055252 23.44181061 C160.59604546 24.36435301 169.30652412 25.22147951 178.03862 25.84927368 C179.94151794 26.01677124 179.94151794 26.01677124 181.88285828 26.18765259 C186.06591766 25.73912092 188.76067581 23.88487076 192.07377625 21.47427368 C192.71552292 21.03035278 193.35726959 20.58643188 194.01846313 20.12905884 C196.05712241 18.71762329 198.08024769 17.28603844 200.10112 15.84927368 C202.12607154 14.41337705 204.15384375 12.98300817 206.19448853 11.56948853 C207.46043885 10.69247444 208.71765944 9.80268121 209.9644165 8.89859009 C213.78680465 6.24864802 216.39051417 5.2558067 221.03862 5.84927368 C222.03862 6.84927368 222.03862 6.84927368 222.66362 9.47427368 C221.80690993 14.10050805 219.80442873 15.19598296 216.06987 17.86099243 C211.04785676 21.1550707 205.96884211 24.34652649 200.83940125 27.47036743 C197.83127924 29.31671169 195.03438817 31.33391794 192.22612 33.47427368 C181.54817362 40.57901649 160.45360597 34.56156133 148.28862 33.28677368 C147.61130703 33.21691505 146.93399406 33.14705643 146.23615646 33.07508087 C125.91224112 30.96157699 107.35380866 27.29268368 88.68998718 18.56582642 C80.5054958 14.40355034 80.5054958 14.40355034 71.6245575 14.68521118 C70.07609354 15.36297907 68.54617826 16.08482748 67.03862 16.84927368 C65.41469629 17.48200513 63.78566309 18.10177183 62.15190125 18.70864868 C59.73417824 19.65531196 57.32217589 20.6111303 54.91947937 21.59536743 C54.12992859 21.90087524 53.34037781 22.20638306 52.52690125 22.52114868 C51.83121033 22.80055298 51.13551941 23.07995728 50.41874695 23.36782837 C43.78240249 24.71020926 36.82780163 21.70451712 30.5464325 19.72427368 C29.55988678 19.41731567 28.57334106 19.11035767 27.55690002 18.7940979 C25.48359949 18.14773566 23.41111171 17.49876127 21.33940125 16.84732056 C18.15521034 15.84663079 14.96825664 14.85515511 11.7808075 13.86489868 C9.76501398 13.23522956 7.74938305 12.60503969 5.7339325 11.97427368 C4.77673309 11.67633911 3.81953369 11.37840454 2.83332825 11.07144165 C1.95506378 10.79445435 1.07679932 10.51746704 0.17192078 10.23208618 C-0.60416534 9.9886145 -1.38025146 9.74514282 -2.17985535 9.49429321 C-3.96138 8.84927368 -3.96138 8.84927368 -4.96138 7.84927368 C-5.21138 4.91177368 -5.21138 4.91177368 -4.96138 1.84927368 C-1.96138 -0.15072632 -1.96138 -0.15072632 0 0 Z " fill="#000000" transform="translate(123.96138000488281,111.15072631835938)"/>
<path d="M0 0 C4.27516793 0.74282031 8.53230712 1.67888795 12.3125 3.875 C13.9375 6.375 13.9375 6.375 14.3125 8.875 C13.6525 9.865 12.9925 10.855 12.3125 11.875 C11.53648438 11.62878906 10.76046875 11.38257812 9.9609375 11.12890625 C5.99778498 10.29182033 3.31370538 10.09287138 -0.6875 10.875 C-5.68755928 14.32717412 -9.43889384 19.31531269 -13.20019531 24.02539062 C-15.02173756 26.29065721 -16.97009782 28.42366444 -18.9375 30.5625 C-20.98525193 32.85830436 -22.64162114 34.95754844 -23.6875 37.875 C-23.28262409 40.11053433 -23.28262409 40.11053433 -22.3125 42.3125 C-20.97829063 45.64802343 -20.17547194 48.26752955 -20.6875 51.875 C-22.3671875 53.67578125 -22.3671875 53.67578125 -24.5625 55.1875 C-25.28179687 55.69925781 -26.00109375 56.21101563 -26.7421875 56.73828125 C-28.6875 57.875 -28.6875 57.875 -30.6875 57.875 C-30.51361734 62.33617711 -30.32781903 64.2765623 -27 67.38671875 C-25.906875 68.10472656 -24.81375 68.82273437 -23.6875 69.5625 C-18.01327771 73.32970183 -18.01327771 73.32970183 -16.59765625 75.69921875 C-16.74246892 79.20620379 -18.47481377 81.98553552 -20.125 85 C-22.67264151 89.21579582 -22.67264151 89.21579582 -23.6875 93.875 C-21.6803478 95.39245262 -21.6803478 95.39245262 -19.09375 96.921875 C-18.14628906 97.52 -17.19882813 98.118125 -16.22265625 98.734375 C-14.20619946 99.99044332 -12.18274652 101.23535218 -10.15234375 102.46875 C-9.20488281 103.07203125 -8.25742188 103.6753125 -7.28125 104.296875 C-6.40146484 104.83924805 -5.52167969 105.38162109 -4.61523438 105.94042969 C-2.6875 107.875 -2.6875 107.875 -2.33789062 111.03613281 C-2.6875 113.875 -2.6875 113.875 -3.6875 114.875 C-9.7838304 115.80351801 -13.27966863 113.00229149 -18.0625 109.6875 C-19.50741873 108.71425888 -20.95272983 107.74160004 -22.3984375 106.76953125 C-23.10323242 106.28178223 -23.80802734 105.7940332 -24.53417969 105.29150391 C-26.67106681 103.84099672 -26.67106681 103.84099672 -28.97363281 102.64208984 C-34.38150874 99.69705175 -34.38150874 99.69705175 -35.93359375 95.52734375 C-35.62433248 90.93751384 -34.19028996 88.24919258 -31.75 84.4375 C-31.17088867 83.48327148 -31.17088867 83.48327148 -30.58007812 82.50976562 C-29.63282521 80.95439972 -28.66244833 79.41315699 -27.6875 77.875 C-28.27144531 77.5965625 -28.85539062 77.318125 -29.45703125 77.03125 C-31.5650395 75.93848215 -33.44237321 74.75005767 -35.375 73.375 C-35.97699219 72.9521875 -36.57898437 72.529375 -37.19921875 72.09375 C-39.63413519 70.09980268 -39.69950865 68.77150274 -40.06640625 65.609375 C-40.55506054 55.00453724 -40.55506054 55.00453724 -37.90234375 51.55078125 C-35.88539485 50.08164563 -33.96167009 48.89533078 -31.6875 47.875 C-31.91566406 47.22273438 -32.14382812 46.57046875 -32.37890625 45.8984375 C-35.52673941 36.32789542 -35.52673941 36.32789542 -33.6875 31.875 C-31.84941774 29.75653231 -29.89708071 27.84480981 -27.8515625 25.92578125 C-25.91320996 24.08889482 -24.17081048 22.21538787 -22.4375 20.1875 C-19.18241115 16.4049662 -15.82326281 12.72770489 -12.4375 9.0625 C-11.65777832 8.21715698 -11.65777832 8.21715698 -10.86230469 7.35473633 C-9.47603124 5.85654315 -8.08210883 4.36543721 -6.6875 2.875 C-6.14996094 2.24980469 -5.61242187 1.62460938 -5.05859375 0.98046875 C-3.6875 -0.125 -3.6875 -0.125 0 0 Z " fill="#000000" transform="translate(97.6875,103.125)"/>
<path d="M0 0 C1.59765625 2.17578125 1.59765625 2.17578125 3.0625 5.3125 C3.33707031 5.89700928 3.61164063 6.48151855 3.89453125 7.08374023 C4.95513881 9.37825907 5.97623651 11.68879563 7 14 C7.49612793 15.09763672 7.99225586 16.19527344 8.50341797 17.32617188 C9.90590631 20.42975337 11.28910935 23.54139114 12.66061401 26.65878296 C13.2188788 27.92492058 13.78081676 29.18944517 14.34646606 30.45230103 C15.15078163 32.2551834 15.93510758 34.06694242 16.71875 35.87890625 C17.18216797 36.9366626 17.64558594 37.99441895 18.12304688 39.08422852 C19.0837412 42.27843015 19.15265127 43.88614648 18 47 C13.36201473 50.09199018 8.22462482 50.1833046 2.76806641 50.91479492 C0.76912592 51.18491548 -1.2265542 51.47340598 -3.22265625 51.76367188 C-4.49496094 51.93833984 -5.76726562 52.11300781 -7.078125 52.29296875 C-8.23731445 52.4530542 -9.39650391 52.61313965 -10.59082031 52.77807617 C-16.86462249 53.18647535 -21.97829131 51.83509537 -27.7734375 49.53125 C-28.68725693 49.17069519 -28.68725693 49.17069519 -29.61953735 48.80285645 C-30.89312114 48.29873337 -32.16528157 47.79100042 -33.43603516 47.27978516 C-35.38783115 46.49483975 -37.34380813 45.72115494 -39.30078125 44.94921875 C-48.8379101 41.1620899 -48.8379101 41.1620899 -50 40 C-50.64265772 34.33932997 -48.75872013 30.20184846 -46.4375 25.1875 C-46.11458984 24.41212891 -45.79167969 23.63675781 -45.45898438 22.83789062 C-44.4565154 20.65537245 -43.54636114 18.83982283 -42 17 C-38.22265625 15.98828125 -38.22265625 15.98828125 -35 16 C-33.8203125 18.04296875 -33.8203125 18.04296875 -33 21 C-33.83115146 23.64166671 -34.68318436 25.8502596 -35.875 28.3125 C-36.17019531 28.95767578 -36.46539062 29.60285156 -36.76953125 30.26757812 C-37.49734945 31.85234357 -38.24660423 33.42723312 -39 35 C-38.40574219 35.17015625 -37.81148437 35.3403125 -37.19921875 35.515625 C-32.53033488 36.8807108 -28.01624536 38.37713631 -23.5 40.1875 C-13.66752866 43.77669583 -4.10977247 41.63154829 6 40 C3.96181551 33.51593393 1.51590401 27.29548394 -1.1875 21.0625 C-1.91343831 19.38813791 -2.63626017 17.71242005 -3.35546875 16.03515625 C-3.67153076 15.3069165 -3.98759277 14.57867676 -4.31323242 13.82836914 C-5 12 -5 12 -5 10 C-7.97 10.66 -10.94 11.32 -14 12 C-13.484375 12.886875 -12.96875 13.77375 -12.4375 14.6875 C-10.91020998 18.20690743 -10.78324286 19.451125 -12 23 C-13 24 -13 24 -15.25 24.5625 C-18 24 -18 24 -19.37109375 22.35546875 C-20.67309343 20.27304196 -21.86687676 18.17877732 -23 16 C-23.37511719 15.3090625 -23.75023437 14.618125 -24.13671875 13.90625 C-25.22102941 11.51193505 -25.14432234 9.59780212 -25 7 C-20.14459367 4.74613237 -15.23850172 2.63010515 -10.25 0.6875 C-9.36828125 0.34074219 -8.4865625 -0.00601563 -7.578125 -0.36328125 C-4.52806787 -1.11655293 -2.92825559 -1.16162205 0 0 Z " fill="#000000" transform="translate(279,78)"/>
<path d="M0 0 C2.65039062 0.30419922 2.65039062 0.30419922 4.44140625 1.91699219 C5.24094727 3.03291748 5.24094727 3.03291748 6.05664062 4.17138672 C6.65347656 4.99735352 7.2503125 5.82332031 7.86523438 6.67431641 C10.71597736 10.874016 13.46118637 15.1245095 16.15039062 19.42919922 C17.05748779 20.83262573 17.05748779 20.83262573 17.98291016 22.2644043 C21.24125903 27.32580701 24.26969823 32.40454089 27.04882812 37.74560547 C32.42029705 48.36637354 32.42029705 48.36637354 41.42919922 55.55908203 C48.42449706 57.37901534 55.46620637 57.38300433 62.65039062 57.30419922 C74.22403718 57.61741342 80.47512354 61.20230463 88.86083984 68.70605469 C90.70548044 70.35339676 92.58014044 71.95912219 94.46679688 73.55810547 C96.85439406 75.58314615 99.229631 77.62065699 101.59179688 79.67529297 C103.52328241 81.35429476 105.46878986 82.9456168 107.48632812 84.52685547 C109.65039062 86.30419922 109.65039062 86.30419922 110.71289062 88.30419922 C110.65039062 90.30419922 110.65039062 90.30419922 108.71289062 92.55419922 C108.03226562 93.13169922 107.35164063 93.70919922 106.65039062 94.30419922 C102.18011591 92.82243218 98.83438012 90.34875073 95.21289062 87.42919922 C94.60525879 86.9510376 93.99762695 86.47287598 93.37158203 85.98022461 C90.15213697 83.42082794 87.0504414 80.78803909 84.04492188 77.97998047 C83.45445068 77.43905762 82.86397949 76.89813477 82.25561523 76.34082031 C81.14167228 75.31128365 80.04555516 74.26193921 78.97290039 73.18945312 C70.36205068 65.27965668 55.13289642 66.56555581 44.1015625 65.71240234 C35.45628237 64.88233895 35.45628237 64.88233895 31.59570312 62.11279297 C29.45182449 59.01751437 27.38133388 55.91752465 25.46289062 52.67919922 C19.9415209 43.59331753 14.01195598 34.78790651 8.0715332 25.97363281 C5.91111364 22.76360295 3.77680227 19.53687806 1.65039062 16.30419922 C1.01810547 15.35770508 0.38582031 14.41121094 -0.265625 13.43603516 C-0.82443359 12.56495117 -1.38324219 11.69386719 -1.95898438 10.79638672 C-2.6932666 9.66885986 -2.6932666 9.66885986 -3.44238281 8.51855469 C-4.59253887 5.71125775 -4.24106277 4.16137461 -3.34960938 1.30419922 C-2.34960938 0.30419922 -2.34960938 0.30419922 0 0 Z " fill="#000000" transform="translate(254.349609375,350.69580078125)"/>
<path d="M0 0 C1.4540625 0.0309375 1.4540625 0.0309375 2.9375 0.0625 C4.79228277 3.2518273 5.25336087 5.79080426 5.46484375 9.45703125 C5.53509766 10.49537109 5.60535156 11.53371094 5.67773438 12.60351562 C5.80852672 14.77259657 5.93616636 16.94187007 6.06054688 19.11132812 C6.13208984 20.15353516 6.20363281 21.19574219 6.27734375 22.26953125 C6.36036743 23.68455933 6.36036743 23.68455933 6.44506836 25.12817383 C7.46499717 31.20577637 10.45204414 36.14526729 13.82421875 41.2109375 C14.3858371 42.06057068 14.3858371 42.06057068 14.95880127 42.92736816 C15.76064796 44.13934986 16.5649616 45.34970251 17.37155151 46.55853271 C19.51451949 49.77092378 21.63846062 52.99588253 23.765625 56.21875 C24.41403603 57.19942947 24.41403603 57.19942947 25.07554626 58.19992065 C29.39827905 64.74326823 33.64782081 71.33212954 37.875 77.9375 C38.53008545 78.95763184 39.1851709 79.97776367 39.86010742 81.02880859 C41.56678278 83.69811445 43.25816017 86.37593221 44.9375 89.0625 C45.60628174 90.12174683 45.60628174 90.12174683 46.28857422 91.20239258 C47.24656419 92.77923009 48.10463591 94.41614076 48.9375 96.0625 C48.1875 99 48.1875 99 46.9375 101.0625 C44.21875 101.4453125 44.21875 101.4453125 40.9375 101.0625 C39.06669975 99.00590109 37.83050163 97.29384659 36.4375 94.9375 C36.01718506 94.26936279 35.59687012 93.60122559 35.16381836 92.9128418 C34.23424741 91.43199224 33.31404964 89.94522964 32.40185547 88.45361328 C30.36903938 85.13427337 28.28823801 81.84635807 26.20214844 78.56030273 C25.05151467 76.74506739 23.90780313 74.92542853 22.77050781 73.10180664 C19.32199738 67.61938073 15.71340942 62.31483862 11.88671875 57.09375 C-4.94843184 33.95736886 -4.94843184 33.95736886 -4.16796875 19.22949219 C-4.05635864 16.93631784 -4.09137024 14.67745708 -4.15625 12.3828125 C-4.24621199 8.60033829 -4.27922356 4.84256217 -4.0625 1.0625 C-3.0625 0.0625 -3.0625 0.0625 0 0 Z " fill="#000000" transform="translate(215.0625,285.9375)"/>
<path d="M0 0 C6.95690383 -0.39378701 14.89846211 -0.08329067 20.68359375 4.265625 C22.30365374 6.08302941 23.63614916 7.98150075 25 10 C26.10409439 11.52624813 27.20827259 13.05243602 28.31347656 14.57788086 C29.61044622 16.37908676 30.89262918 18.19007478 32.171875 20.00390625 C35.18748808 24.27531589 38.24763225 28.51385105 41.3125 32.75 C42.12690552 33.87692261 42.12690552 33.87692261 42.95776367 35.02661133 C45.7942258 38.95136232 48.63297129 42.87445542 51.47265625 46.796875 C54.18914289 50.54996151 56.89994641 54.30708811 59.60644531 58.06738281 C60.84509096 59.78516819 62.09006629 61.49838544 63.3359375 63.2109375 C63.96757812 64.09007812 64.59921875 64.96921875 65.25 65.875 C65.77078125 66.59429687 66.2915625 67.31359375 66.828125 68.0546875 C68.05614566 70.0932018 68.7396414 71.63221043 69 74 C67.0625 76.25 67.0625 76.25 65 78 C59.29616627 76.65792148 57.11979405 72.56350827 54 68 C52.84406352 66.35394645 51.6878046 64.7081193 50.53125 63.0625 C49.65146484 61.79792969 49.65146484 61.79792969 48.75390625 60.5078125 C46.04804711 56.63885577 43.27298617 52.8209709 40.5 49 C39.4241222 47.51067447 38.34860305 46.02108979 37.2734375 44.53125 C35.03064285 41.42563429 32.78554639 38.32169799 30.5390625 35.21875 C29.97195557 34.43387207 29.40484863 33.64899414 28.82055664 32.84033203 C27.70192523 31.29631466 26.57880245 29.75553999 25.45092773 28.21826172 C22.58037953 24.28857871 20.02176832 20.32856138 17.5625 16.125 C13.97393926 10.81539482 8.73658817 9.869214 2.81640625 8.5234375 C1.88699219 8.35070312 0.95757812 8.17796875 0 8 C-1.125 2.25 -1.125 2.25 0 0 Z " fill="#000000" transform="translate(149,200)"/>
<path d="M0 0 C4.09165609 0.67436554 7.52161499 2.08848218 11.25 3.875 C11.29254356 5.87454746 11.29080783 7.87541636 11.25 9.875 C10.92 10.205 10.59 10.535 10.25 10.875 C9.57453125 10.73320312 8.8990625 10.59140625 8.203125 10.4453125 C4.78236035 9.88177613 2.6127729 9.93163445 -0.75 10.875 C-5.2742521 14.3894114 -8.64556666 19.25724802 -12.109375 23.77050781 C-14.68463361 27.07389014 -17.43880745 30.21593194 -20.1875 33.375 C-21.12483103 34.46777909 -22.06106843 35.5614974 -22.99609375 36.65625 C-23.4559668 37.18331543 -23.91583984 37.71038086 -24.38964844 38.25341797 C-25.77129372 39.85763729 -25.77129372 39.85763729 -26.97753906 41.59423828 C-31.56594711 47.72403804 -37.85101266 50.48032119 -44.625 53.75 C-45.77097656 54.33007812 -46.91695312 54.91015625 -48.09765625 55.5078125 C-54.05951332 58.44414717 -59.074992 60.62899233 -65.75 60.875 C-67.75 57.875 -67.75 57.875 -67.76489258 55.39233398 C-66.26743093 51.67803833 -64.13117611 51.17798969 -60.51171875 49.59765625 C-59.20784608 49.00453492 -57.9047314 48.40974502 -56.60229492 47.81347656 C-55.92073334 47.50800903 -55.23917175 47.2025415 -54.53695679 46.88781738 C-41.88189813 41.15951552 -32.55165646 35.61942908 -24.75 23.875 C-23.20832349 21.94154431 -21.64663293 20.02382601 -20.0625 18.125 C-19.00095703 16.81789062 -19.00095703 16.81789062 -17.91796875 15.484375 C-14.32764343 11.1630465 -10.57376425 6.99053743 -6.75 2.875 C-6.24726562 2.28460938 -5.74453125 1.69421875 -5.2265625 1.0859375 C-3.75 -0.125 -3.75 -0.125 0 0 Z " fill="#000000" transform="translate(123.75,192.125)"/>
<path d="M0 0 C0.9998291 0.20085205 1.9996582 0.4017041 3.02978516 0.60864258 C4.67333984 0.93638672 4.67333984 0.93638672 6.35009766 1.27075195 C7.49478516 1.51245117 8.63947266 1.75415039 9.81884766 2.00317383 C10.95580078 2.22553711 12.09275391 2.44790039 13.26416016 2.67700195 C18.61808 3.77355009 22.83465257 4.7729302 27.44384766 7.81567383 C27.09754511 14.34347683 24.58727129 18.36778791 20.94384766 23.69067383 C20.17621094 24.84696289 20.17621094 24.84696289 19.39306641 26.02661133 C15.70364428 31.5558772 15.70364428 31.5558772 14.44384766 32.81567383 C12.00634766 33.00317383 12.00634766 33.00317383 9.44384766 32.81567383 C7.44384766 30.81567383 7.44384766 30.81567383 7.06884766 28.61645508 C7.57650154 24.8249151 9.37987172 22.13051575 11.44384766 19.00317383 C11.82541016 18.40569336 12.20697266 17.80821289 12.60009766 17.19262695 C13.53798625 15.72717603 14.48957716 14.27051032 15.44384766 12.81567383 C14.22697266 12.67129883 13.01009766 12.52692383 11.75634766 12.37817383 C8.58743645 12.00220131 5.59507021 11.44591834 2.44384766 10.81567383 C0.46384766 17.41567383 -1.51615234 24.01567383 -3.55615234 30.81567383 C-1.78240234 32.09442383 -0.00865234 33.37317383 1.81884766 34.69067383 C7.19384766 38.56567383 7.19384766 38.56567383 9.44384766 40.81567383 C9.75634766 43.31567383 9.75634766 43.31567383 9.44384766 45.81567383 C6.44384766 47.81567383 6.44384766 47.81567383 4.24072266 47.77270508 C0.19393016 46.3879786 -2.89594278 44.04276149 -6.30615234 41.50317383 C-6.99064453 41.01655273 -7.67513672 40.52993164 -8.38037109 40.02856445 C-9.03134766 39.54967773 -9.68232422 39.07079102 -10.35302734 38.57739258 C-10.94438477 38.14386475 -11.53574219 37.71033691 -12.14501953 37.26367188 C-13.97515125 35.38572875 -14.3359515 34.43963935 -14.55615234 31.81567383 C-13.89111328 28.6394043 -13.89111328 28.6394043 -12.79052734 24.93286133 C-12.49943085 23.94964401 -12.49943085 23.94964401 -12.20245361 22.94656372 C-11.79035543 21.56500797 -11.37314427 20.18496839 -10.95117188 18.80639648 C-10.30758715 16.69538013 -9.68681043 14.57856061 -9.06787109 12.46020508 C-8.66427942 11.1173488 -8.25937564 9.77488603 -7.85302734 8.43286133 C-7.48532227 7.21195801 -7.11761719 5.99105469 -6.73876953 4.7331543 C-5.26820643 1.10532006 -4.03997718 -0.29132596 0 0 Z " fill="#000000" transform="translate(216.55615234375,67.184326171875)"/>
<path d="M0 0 C1.99954746 -0.04254356 4.00041636 -0.04080783 6 0 C7 1 7 1 7.23193359 3.68261719 C6.96821324 7.45465099 5.99984638 9.71771315 4.2890625 13.078125 C3.70793701 14.23143311 3.12681152 15.38474121 2.52807617 16.57299805 C1.89424864 17.79894014 1.25987991 19.02460257 0.625 20.25 C-0.01456795 21.50463207 -0.65348045 22.75959848 -1.29174805 24.01489258 C-15.15080632 51.15080632 -15.15080632 51.15080632 -18 54 C-20.4375 54.1875 -20.4375 54.1875 -23 54 C-23.66 53.34 -24.32 52.68 -25 52 C-24.70680208 46.85616993 -23.31772361 43.06279971 -20.9375 38.53515625 C-20.47610374 37.64813522 -20.47610374 37.64813522 -20.00538635 36.74319458 C-19.01384237 34.84404158 -18.00745624 32.95325235 -17 31.0625 C-16.31567434 29.76051424 -15.63200132 28.45818524 -14.94897461 27.15551758 C-10.13677131 18.00831345 -5.19324089 8.93687795 0 0 Z " fill="#000000" transform="translate(382,284)"/>
<path d="M0 0 C3 0.125 3 0.125 4 1.125 C4.40070156 6.75373129 3.33070512 11.06409441 1.5234375 16.2890625 C1.01272192 17.83844317 0.50231433 19.38792539 -0.0078125 20.9375 C-0.81665431 23.35318831 -1.63075822 25.76692752 -2.45117188 28.17871094 C-3.24452599 30.52357653 -4.01772827 32.87437836 -4.7890625 35.2265625 C-5.03999664 35.94437897 -5.29093079 36.66219543 -5.54946899 37.40176392 C-6.5984608 40.62783435 -7.15301264 42.62272129 -6.14990234 45.91552734 C-5.77043457 46.64465332 -5.3909668 47.3737793 -5 48.125 C-4.8125 51.375 -4.8125 51.375 -5 54.125 C-6 55.125 -6 55.125 -8.6875 55.6875 C-13.0837325 54.94096995 -14.3157835 53.16061083 -17.09375 49.8515625 C-19.93522188 41.30265142 -13.55325813 29.24744663 -10.77709961 21.04467773 C-9.92963757 18.53925564 -9.09209319 16.03067385 -8.25585938 13.52148438 C-7.72192459 11.92949607 -7.18743982 10.3376921 -6.65234375 8.74609375 C-6.40129379 7.99516953 -6.15024384 7.2442453 -5.8915863 6.4705658 C-3.74776993 0.15615708 -3.74776993 0.15615708 0 0 Z " fill="#000000" transform="translate(326,70.875)"/>
<path d="M0 0 C0.78503906 0.00773437 1.57007813 0.01546875 2.37890625 0.0234375 C3.55646484 0.01183594 3.55646484 0.01183594 4.7578125 0 C10.62559838 0.02012963 10.62559838 0.02012963 12.87890625 2.2734375 C12.54919146 5.57058543 12.25622235 6.8961214 9.87890625 9.2734375 C7.89069312 9.67108013 5.88946286 10.01119099 3.87890625 10.2734375 C4.46800781 11.41941406 5.05710937 12.56539062 5.6640625 13.74609375 C6.42411254 15.27557716 7.18317529 16.80555147 7.94140625 18.3359375 C8.33134766 19.08810547 8.72128906 19.84027344 9.12304688 20.61523438 C11.61656167 25.71259647 12.28274553 28.73892975 10.87890625 34.2734375 C8.19140625 34.7734375 8.19140625 34.7734375 4.87890625 34.2734375 C0.58276328 29.24485393 -2.15268813 22.51125809 -4.99609375 16.5859375 C-5.41117187 15.75771484 -5.82625 14.92949219 -6.25390625 14.07617188 C-9.15163396 8.0440687 -9.15163396 8.0440687 -9.00390625 4.31640625 C-7.03649809 -0.23648963 -4.61060128 0.01581681 0 0 Z " fill="#000000" transform="translate(294.12109375,73.7265625)"/>
<path d="M0 0 C1.99954746 -0.04254356 4.00041636 -0.04080783 6 0 C7 1 7 1 7.01953125 2.78515625 C6.51551217 8.32936618 5.59634924 13.56938792 2 18 C-1.125 19.0625 -1.125 19.0625 -4 19 C-4.66 18.67 -5.32 18.34 -6 18 C-6.95971191 10.80216064 -3.66199881 6.02703971 0 0 Z " fill="#000000" transform="translate(394,261)"/>
</svg>
